<svg xmlns="http://www.w3.org/2000/svg" width="400" height="400" viewBox="0 0 400 NaN" fill-rule="evenodd" xmlns:v="https://vecta.io/nano"><path d="M360.9 38.998c-.275.313-.5.728-.5.923 0 .922-1.561 1.679-3.464 1.679-1.743 0-2.072.133-2.555 1.035-.304.569-1.234 1.574-2.067 2.233s-1.514 1.448-1.514 1.752c0 .811-1.32 1.38-3.201 1.38-1.645 0-5.156 2.87-6.646 5.432-.393.676-.875.76-4.033.698-3.209-.063-3.646.016-4.153.75-1.808 2.616-.843 2.421-11.589 2.35-9.671-.063-9.785-.054-10.378.819a10.01 10.01 0 0 1-2.734 2.739c-.476.324-.866.815-.866 1.091s-.495.819-1.1 1.207c-1.282.82-2.1 1.558-2.1 1.894 0 .31-4.31 4.62-4.62 4.62-.336 0-1.074.818-1.894 2.1-.388.605-.893 1.1-1.124 1.1-.961 0-1.562 1.217-1.562 3.166 0 1.925-.078 2.073-1.593 3.03l-1.593 1.005-.107 10.088-.107 10.088-.934.465c-1.813.903-1.807.865-1.837 12.805-.027 10.753-.075 11.492-.776 11.909-2.509 1.491-2.353.616-2.279 12.793l.068 11.105-1.621 1.482-1.621 1.482v9.402c0 9.551-.241 11.18-1.651 11.18-1.358 0-1.549 1.083-1.549 8.794v7.65l2.423 2.378c1.332 1.308 2.582 2.378 2.778 2.378s.59.478.877 1.063.882 1.26 1.322 1.5.928.633 1.084.873.606.831 1 1.315l.716.878 31.2.003 31.2.003 1.2-1.417c.66-.78 1.348-1.418 1.529-1.418.422 0 1.1-.717 1.985-2.1.388-.605.931-1.1 1.207-1.1s.767-.39 1.091-.866c.747-1.099 1.623-1.975 2.722-2.722.704-.478.866-.983.866-2.691 0-1.857.128-2.184 1.1-2.802 1.784-1.135 1.837-1.475 1.736-11.026-.101-9.512.145-11.093 1.724-11.093 1.394 0 1.511-.981 1.459-12.18-.051-10.972.123-12.62 1.333-12.62 1.713 0 1.848-.928 1.848-12.67 0-11.593.132-12.53 1.76-12.53 1.288 0 1.44-1.158 1.44-10.962v-9.82l1.1-.704c2.248-1.438 2.157-.87 2.061-12.969-.095-11.965-.037-12.345 1.873-12.345.264 0 .593-.293.73-.651.28-.73-.398-1.749-1.164-1.749-1.358 0-1.58-1.187-1.462-7.837l.117-6.542-1.268-.77c-.697-.424-1.597-1.313-1.999-1.975s-1.107-1.323-1.565-1.469-1.108-.799-1.447-1.453-1.055-1.389-1.593-1.635-1.333-1.047-1.767-1.782c-.897-1.519-6.356-2.056-7.516-.739m-225.453 7.158c-.75 1.581-1.276 1.844-3.693 1.844-1.607 0-1.861.135-2.597 1.382-.911 1.546-1.637 1.892-3.683 1.754-1.406-.095-2.67.571-2.679 1.413-.003.248-.62.849-1.371 1.335s-1.605 1.387-1.898 2c-.471.988-.78 1.13-2.681 1.239-2.225.127-2.578.331-3.759 2.177-.684 1.068-.813 1.1-4.395 1.115L105 60.43l-1.096 1.585-1.096 1.585H91.413 80.018l-.681 1.1c-1.07 1.728-1.749 2.1-3.832 2.1-1.731 0-2.016.128-2.619 1.179-.372.649-1.092 1.369-1.6 1.6s-1.215.93-1.573 1.553-1.159 1.424-1.781 1.781l-1.132.65v5.222 5.223l-1.585 1.096L63.63 86.2l-.015 9.838c-.015 10.118-.181 11.162-1.775 11.162-1.314 0-1.44 1.099-1.44 12.566v11.424l-1.618 1.021-1.617 1.021.064 9.787c.065 9.91-.074 10.981-1.429 10.981-1.412 0-1.541 1.045-1.571 12.682-.027 10.719-.075 11.457-.776 11.874-2.326 1.383-2.33 1.392-2.356 6.107l-.024 4.431 3.672 3.672 3.671 3.672h32.51c32.484 0 33.874-.044 33.874-1.072 0-.301.495-.861 1.1-1.243s1.37-1.038 1.7-1.457.96-1.105 1.4-1.527l1.381-1.345c.475-.473.584-2.339.6-10.201l.019-9.622 1.536-1.291 1.535-1.291-.051-10.996c-.055-11.764-.031-11.916 1.987-12.921l.993-.495.2-11.588c.196-11.377.327-12.589 1.362-12.589 1.665 0 1.838-1.051 1.838-11.135v-9.673l1.585-1.096 1.585-1.096.015-11.491.015-11.491 1.1-.704c1.907-1.22 2.021-1.477 2.033-4.588l.012-3.01-1.595-.896c-1.885-1.059-2.158-3.401-.493-4.226 1.911-.947 2.105-1.348 2.096-4.327-.01-2.902-.587-4.267-1.805-4.267-.29 0-.805-.537-1.144-1.193s-1.154-1.471-1.811-1.811-1.193-.764-1.193-.945c0-2.274-4.336-2.836-5.353-.695M54.8 210.779c0 .494-9.127 9.621-9.621 9.621-.209 0-.379.962-.379 2.138 0 2.01-.738 3.462-1.76 3.462-1.289 0-1.428 1.142-1.534 12.654l-.106 11.523-.934.465c-1.876.935-1.873.92-1.731 10.478.145 9.729-.044 11.037-1.689 11.662-1.527.581-1.543.715-1.472 11.975.067 10.647-.156 12.843-1.302 12.843-1.702 0-1.872 1.011-1.872 11.135v9.673l-1.585 1.096-1.585 1.096-.015 3.212c-.013 2.854.081 3.277.851 3.8 1.099.747 1.975 1.623 2.722 2.722.324.476.817.866 1.097.866s.914.621 1.411 1.381 1.309 1.565 1.804 1.791.9.567.9.758c0 1.736 1.308 2.07 8.118 2.07 6.699 0 7.882.249 7.882 1.657 0 .932 1.231 1.543 3.109 1.543 1.838 0 3.291.777 3.291 1.76 0 .843 1.312 1.44 3.166 1.44 1.926 0 2.073.077 3.034 1.6.556.88 1.274 1.6 1.596 1.6 1.456 0 1.924 1.812 1.711 6.626-.219 4.979-.259 4.866 2.287 6.378.589.35.673 1.107.632 5.688l-.047 5.285 1.611 1.016L76 372.81v5.552c0 4.694.098 5.59.633 5.795.348.134 10.711.243 23.028.243 23.578 0 23.963-.029 23.307-1.74-.595-1.55.649-1.622 26.153-1.521l25.5.469c1.091.415 1.323 1.192.355 1.192-.343 0-.512.18-.376.4s.861.4 1.611.4c.927 0 1.302.16 1.172.5-.15.392 2.124.5 10.562.5 7.815 0 10.706-.123 10.58-.451-.099-.259.475-.579 1.351-.751.838-.165 1.299-.382 1.024-.483-.831-.302-.565-.91.6-1.365 1.452-.568 30.731-.546 32.231.024 1.095.416 1.466 1.221.569 1.232-.94.012.666.782 1.643.788.588.004.87.194.75.506-.149.388 1.362.5 6.757.5 5.292 0 6.949-.119 6.949-.5.001-.275.193-.5.428-.5.24 0 .319-.339.181-.776-.523-1.645.67-1.767 16.875-1.729 8.406.02 15.452.141 15.658.269s.478-.038.605-.366.592-.598 1.037-.598c.598 0 .783-.232.712-.894-.117-1.106 2.324-1.5 8.969-1.448 4.67.037 5.158-.087 4.86-1.229-.151-.574.216-1.033 1.437-1.804l1.639-1.035v-6.79-6.79l1.6-1.01c1.549-.978 1.6-1.08 1.6-3.2s.051-2.222 1.6-3.2c1.515-.956 1.6-1.115 1.6-2.989 0-1.313.211-2.153.628-2.495 1.863-1.53 8.972-8.719 8.972-9.073 0-.837 1.629-1.243 4.987-1.243h3.44l.816-1.382c1.001-1.697 1.603-1.902 5.167-1.757l2.811.115 1.49-1.618c.819-.891 1.763-1.785 2.099-1.989s.924-.864 1.309-1.469.888-1.1 1.119-1.1c.479 0 1.168-.689 1.789-1.79.234-.416.774-.949 1.2-1.183 1.451-.801 1.556-1.488 1.421-9.303l-.133-7.676 1.143-1.047 1.702-1.591c.456-.445.543-2.541.472-11.406-.089-11.142.12-12.804 1.606-12.804 1.447 0 1.562-.907 1.562-12.295 0-11.923-.032-11.722 2.1-13.042l1.1-.681v-9.618c0-9.491.203-11.164 1.352-11.164 1.526 0 1.848-1.285 1.848-7.375v-5.912l-5-4.968c-2.75-2.732-5-5.142-5-5.356 0-.249-11.401-.389-31.6-.389l-31.6.376c0 .525-12.293 12.824-12.818 12.824-.295 0-.403 3.055-.346 9.803.086 10.283-.095 11.397-1.855 11.397-.957 0-1.078 1.492-.998 12.31l.08 10.911-1.274 1.189c-.701.655-1.435 1.19-1.631 1.19-.202 0-.358 4.934-.358 11.324 0 12.107.034 11.892-2.1 13.213l-1.1.681v6.763c0 5.614-.107 6.869-.629 7.39-.565.565-5.889.629-52.628.629-54.157 0-53.143-.029-53.143 1.509 0 1.629-.592 1.677-21.024 1.7-19.561.023-19.577.022-20.276-.838-.992-1.218-.365-3.571.951-3.571 1.482 0 1.63-1 1.571-10.604-.057-9.344.142-10.996 1.33-10.996 1.713 0 1.848-.928 1.848-12.67 0-11.593.132-12.53 1.76-12.53 1.314 0 1.44-1.099 1.44-12.566V238.41l1.6-1.01 1.6-1.01v-7.609-7.609l-5.392-5.386-5.392-5.386H86.008l-31.208.379M293.608 375.41c.717.864.192 1.147-1.922 1.037-.786-.04-.854-.159-.486-.847.508-.95 1.7-1.044 2.408-.19m4.792 1.433c0 .196-.472.357-1.049.357-.868 0-.966-.1-.571-.576.486-.586 1.62-.433 1.62.219m-150.61 1.876c.343.893.708.863-10.76.894-11.131.031-11.47-.001-10.642-.999.744-.897 21.056-.798 21.402.105m60.805-.155c1.002.519 1.029.594.346.952-.777.407-3.341.191-3.341-.281 0-1.144 1.456-1.47 2.995-.671m21.005.483c0 .33-.18.489-.4.353s-.4-.517-.4-.847.18-.489.4-.353.4.517.4.847m51.204-.443c.812.979.796.981-13.179 1.007-13.772.026-14.067.004-13.247-.984.753-.907 25.674-.928 26.426-.023M229.8 383.6c-.136.22.123.4.576.4s.824-.18.824-.4-.259-.4-.576-.4-.688.18-.824.4" fill="#e65940"/><path d="M356.88 34.88c-.264.264-.48.624-.48.8 0 .477 1.111.387 1.422-.115.411-.666-.383-1.244-.942-.685m14.32.271c0 .488.255.849.6.849.33 0 .6-.158.6-.351s-.27-.575-.6-.849c-.501-.416-.6-.358-.6.351m-12.8 2.839v1.61h-3.2-3.2v1.357c0 1.13-.175 1.4-1.048 1.619-1.347.338-2.152 1.153-2.152 2.178 0 .729-.292.823-2.886.928l-2.887.118-.353 1.5c-.261 1.107-.56 1.5-1.142 1.5-1.087 0-1.932.944-1.932 2.159v1.016l-4.7.112-4.7.113-.124 1.5-.124 1.5h-10.776H308.4v1.6c0 1.452-.095 1.6-1.029 1.6-1.241 0-2.171.844-2.171 1.971 0 .603-.256.829-.938.829-1.143 0-2.262 1.154-2.262 2.331 0 .645-.242.869-.938.869-1.143 0-2.262 1.154-2.262 2.331 0 .645-.242.869-.938.869-1.143 0-2.262 1.154-2.262 2.331 0 .721-.231.869-1.353.869-1.57 0-1.833.557-1.842 3.9-.004 1.802-.114 2.1-.772 2.1-2.09 0-2.033-.313-2.033 11.219v10.733l-1.5.124-1.5.124-.106 12.5-.105 12.5h-1.595-1.594v12.376 12.376l-1.5.124-1.5.124-.106 10.9-.107 10.9h-1.351c-1.846 0-1.836-.061-1.836 10.8 0 10.867-.011 10.8 1.843 10.8 1.191 0 1.357.126 1.357 1.029 0 1.312.859 2.171 2.171 2.171.839 0 1.029.19 1.029 1.029 0 1.304.857 2.171 2.147 2.171.872 0 1.021.198 1.129 1.5l.124 1.5 33.975.102c36.596.11 34.606.225 34.619-2.002.005-.844.199-1.1.835-1.1 1.041 0 1.855-.798 2.195-2.152.172-.685.534-1.048 1.048-1.048 1.087 0 1.928-.947 1.928-2.171 0-.934.148-1.029 1.6-1.029h1.6v-2.976-2.976l1.5-.124 1.5-.124.106-10.876.107-10.876 1.493-.124 1.494-.124.106-12.3.106-12.3h.965c2.185 0 2.223-.228 2.223-13.229V114.4h1.4 1.4v-11-11h1.6 1.6V80.024 67.648l1.5-.124 1.5-.124v-3-3l-1.491-.124-1.492-.123-.108-7.677-.109-7.676-1.5-.124c-1.195-.099-1.5-.288-1.5-.929 0-.956-.706-1.736-1.919-2.121-.484-.154-.881-.51-.881-.792 0-.85-1.439-2.234-2.323-2.234-.669 0-.853-.289-.953-1.5l-.124-1.5-6.1-.11-6.1-.111v1.611m-7.97.174c-.321.386-.336.647-.049.824.558.345 1.219-.095 1.219-.812 0-.734-.566-.74-1.17-.012m23.97.187c0 .488.255.849.6.849.33 0 .6-.158.6-.351s-.27-.575-.6-.849c-.501-.416-.6-.358-.6.351m-5.984 1.386c.434.735 1.229 1.537 1.767 1.782s1.255.981 1.593 1.635.99 1.308 1.447 1.453 1.162.806 1.565 1.469 1.302 1.551 1.999 1.975l1.268.77-.117 6.542c-.118 6.65.104 7.837 1.462 7.837.766 0 1.444 1.019 1.164 1.749-.137.358-.466.651-.73.651-1.91 0-1.968.38-1.873 12.345.096 12.099.187 11.531-2.061 12.969l-1.1.704v9.82c0 9.804-.152 10.962-1.44 10.962-1.628 0-1.76.937-1.76 12.53 0 11.742-.135 12.67-1.848 12.67-1.21 0-1.384 1.648-1.333 12.62.052 11.199-.065 12.18-1.459 12.18-1.579 0-1.825 1.581-1.724 11.093.101 9.551.048 9.891-1.736 11.026-.972.618-1.1.945-1.1 2.802 0 1.708-.162 2.213-.866 2.691-1.099.747-1.975 1.623-2.722 2.722-.324.476-.815.866-1.091.866s-.819.495-1.207 1.1c-.885 1.383-1.563 2.1-1.985 2.1-.181 0-.869.638-1.529 1.418l-1.2 1.417-31.2-.003-31.2-.003-.716-.878c-.394-.484-.844-1.075-1-1.315s-.644-.633-1.084-.873-1.035-.915-1.322-1.5-.682-1.063-.877-1.063-1.446-1.07-2.778-2.378l-2.423-2.378v-7.65c0-7.711.191-8.794 1.549-8.794 1.41 0 1.651-1.629 1.651-11.18v-9.402l1.621-1.482 1.621-1.482-.068-11.105c-.074-12.177-.23-11.302 2.279-12.793.701-.417.749-1.156.776-11.909.03-11.94.024-11.902 1.837-12.805l.934-.465.107-10.088.107-10.088 1.593-1.005c1.515-.957 1.593-1.105 1.593-3.03 0-1.949.601-3.166 1.562-3.166.231 0 .736-.495 1.124-1.1.82-1.282 1.558-2.1 1.894-2.1.31 0 4.62-4.31 4.62-4.62 0-.336.818-1.074 2.1-1.894.605-.388 1.1-.931 1.1-1.207s.39-.767.866-1.091a10.01 10.01 0 0 0 2.734-2.739c.593-.873.707-.882 10.378-.819 10.746.071 9.781.266 11.589-2.35.507-.734.944-.813 4.153-.75 3.158.062 3.64-.022 4.033-.698 1.49-2.562 5.001-5.432 6.646-5.432 1.881 0 3.201-.569 3.201-1.38 0-.304.681-1.092 1.514-1.752s1.763-1.664 2.067-2.233c.483-.902.812-1.035 2.555-1.035 1.903 0 3.464-.757 3.464-1.679 0-2.1 6.793-2.256 8.016-.184M131.6 41.4c-.416.501-.358.6.351.6.488 0 .849-.255.849-.6 0-.33-.158-.6-.351-.6s-.575.27-.849.6m11.2 0c0 .345.361.6.849.6.709 0 .767-.099.351-.6-.274-.33-.656-.6-.849-.6s-.351.27-.351.6m204.4 0c-.416.501-.358.6.351.6.488 0 .849-.255.849-.6 0-.33-.158-.6-.351-.6s-.575.27-.849.6m30 0c0 .345.361.6.849.6.709 0 .767-.099.351-.6-.274-.33-.656-.6-.849-.6s-.351.27-.351.6m-243.3 1.276c-.495.129-.7.584-.7 1.553V45.6h-2.786c-2.959 0-3.614.427-3.614 2.356 0 .727-.295.821-2.9.926L121 49l-.124 1.5c-.108 1.302-.257 1.5-1.129 1.5-1.29 0-2.147.867-2.147 2.171 0 1.012-.048 1.029-2.957 1.029-3.157 0-3.443.185-3.443 2.233 0 .967-.001.967-4.6.967H102v1.4 1.4H89.814c-13.328 0-13.014-.057-13.014 2.356 0 .727-.295.821-2.9.926L71 64.6l-.124 1.5c-.108 1.302-.257 1.5-1.129 1.5-1.282 0-2.147.865-2.147 2.147 0 .872-.198 1.021-1.5 1.129L64.6 71l-.11 6.1-.111 6.1h-1.347c-1.851 0-1.832-.118-1.832 11.633V105.2h-1.4-1.4v12.376 12.376l-1.5.124-1.5.124-.106 10.876-.107 10.876-1.493.124-1.494.124-.106 12.25-.105 12.25-1.595.255-1.594.254v7.596 7.595h1.6c1.452 0 1.6.095 1.6 1.029 0 1.312.859 2.171 2.171 2.171.934 0 1.029.148 1.029 1.6v1.6H91h35.8v-1.6c0-1.452.095-1.6 1.029-1.6 1.312 0 2.171-.859 2.171-2.171 0-.934.148-1.029 1.6-1.029h1.6v-10.8-10.8h.967c2.337 0 2.233.599 2.233-12.843V145.6h1.357c1.875 0 1.843.228 1.843-13.007v-11.742l1.3-.126 1.3-.125.106-10.9.107-10.9h1.593 1.594V86.435 74.07l1.6-.27 1.6-.27v-5.738c0-5.406-.047-5.753-.808-5.995-.808-.256-.808-.256.014-.926.77-.628.815-1.031.708-6.271L148.6 49l-1.5-.124c-1.259-.104-1.5-.271-1.5-1.038 0-1.122-1.163-2.238-2.331-2.238-.721 0-.869-.231-.869-1.353 0-1.066-.192-1.405-.9-1.595-1.017-.273-6.532-.255-7.6.024m-8.22 1.404c-.653.653-.603 1.12.12 1.12.333 0 .6-.356.6-.8 0-.932-.074-.966-.72-.32m215.6 0c-.653.653-.603 1.12.12 1.12.333 0 .6-.356.6-.8 0-.932-.074-.966-.72-.32M146 44.6c0 .345.361.6.849.6.709 0 .767-.099.351-.6-.274-.33-.656-.6-.849-.6s-.351.27-.351.6m234.4 0c0 .345.361.6.849.6.709 0 .767-.099.351-.6-.274-.33-.656-.6-.849-.6s-.351.27-.351.6m-240.347 1.061c.411.474.747 1.009.747 1.19s.537.606 1.193.945 1.471 1.154 1.811 1.811.854 1.193 1.144 1.193c1.218 0 1.795 1.365 1.805 4.267.009 2.979-.185 3.38-2.096 4.327-1.665.825-1.392 3.167.493 4.226l1.595.896-.012 3.01c-.012 3.111-.126 3.368-2.033 4.588l-1.1.704-.015 11.491-.015 11.491-1.585 1.096-1.585 1.096v9.673c0 10.084-.173 11.135-1.838 11.135-1.035 0-1.166 1.212-1.362 12.589l-.2 11.588-.993.495c-2.018 1.005-2.042 1.157-1.987 12.921l.051 10.996-1.535 1.291-1.536 1.291-.019 9.622c-.016 7.862-.125 9.728-.6 10.201L129 191.139c-.44.422-1.07 1.109-1.4 1.527s-1.095 1.074-1.7 1.457-1.1.942-1.1 1.243c0 1.028-1.39 1.072-33.874 1.072h-32.51l-3.671-3.672-3.672-3.672.024-4.431c.026-4.715.03-4.724 2.356-6.107.701-.417.749-1.155.776-11.874.03-11.637.159-12.682 1.571-12.682 1.355 0 1.494-1.071 1.429-10.981l-.064-9.787 1.617-1.021 1.618-1.021v-11.424c0-11.467.126-12.566 1.44-12.566 1.594 0 1.76-1.044 1.775-11.162l.015-9.838 1.585-1.096 1.585-1.096v-5.223-5.222l1.132-.65c.622-.357 1.424-1.159 1.781-1.781s1.065-1.322 1.573-1.553 1.228-.951 1.6-1.6c.603-1.051.888-1.179 2.619-1.179 2.083 0 2.762-.372 3.832-2.1l.681-1.1h11.395 11.395l1.096-1.585L105 60.43l3.691-.015c3.582-.015 3.711-.047 4.395-1.115 1.181-1.846 1.534-2.05 3.759-2.177 1.901-.109 2.21-.251 2.681-1.239.293-.613 1.147-1.513 1.898-2s1.368-1.087 1.371-1.335c.009-.842 1.273-1.508 2.679-1.413 2.046.138 2.772-.208 3.683-1.754.736-1.247.99-1.382 2.597-1.382 2.417 0 2.943-.263 3.693-1.844.809-1.703 3.324-1.973 4.606-.495M119.3 47.425c-.696.753-.627.975.3.975.44 0 .8-.259.8-.576 0-.835-.522-1.024-1.1-.399m218.8-.008c-.275.302-.5.647-.5.766 0 .399 1.149.223 1.422-.218.424-.687-.367-1.158-.922-.548m-188.9.383c0 .345.361.6.849.6.709 0 .767-.099.351-.6-.274-.33-.656-.6-.849-.6s-.351.27-.351.6m-33.1 2.798c-.693.787-.628 1.002.3 1.002.533 0 .8-.267.8-.8 0-.931-.394-1.004-1.1-.202m212.78-.118c-.653.653-.603 1.12.12 1.12.333 0 .6-.356.6-.8 0-.932-.074-.966-.72-.32m-218.8 3.2c-.653.653-.603 1.12.12 1.12.333 0 .6-.356.6-.8 0-.932-.074-.966-.72-.32m196.8 0c-.264.264-.48.624-.48.8 0 .477 1.111.387 1.422-.115.411-.666-.383-1.244-.942-.685m-206.45 3.284c-.321.386-.336.647-.049.824.558.345 1.219-.095 1.219-.812 0-.734-.566-.74-1.17-.012m203.2 0c-.321.386-.336.647-.049.824.558.345 1.219-.095 1.219-.812 0-.734-.566-.74-1.17-.012M75.68 59.68c-.653.653-.603 1.12.12 1.12.333 0 .6-.356.6-.8 0-.932-.074-.966-.72-.32m224.72.52c-.416.501-.358.6.351.6.488 0 .849-.255.849-.6 0-.33-.158-.6-.351-.6s-.575.27-.849.6m83.2 0c0 .345.361.6.849.6.709 0 .767-.099.351-.6-.274-.33-.656-.6-.849-.6s-.351.27-.351.6M69.3 63.025c-.696.753-.627.975.3.975.44 0 .8-.259.8-.576 0-.835-.522-1.024-1.1-.399m228.1.175c-.703.776-.699.8.138.8.595 0 .862-.247.862-.8 0-.44-.062-.8-.138-.8s-.464.36-.862.8M66.1 66.198c-.693.787-.628 1.002.3 1.002.533 0 .8-.267.8-.8 0-.931-.394-1.004-1.1-.202m228.38-.118c-.653.653-.603 1.12.12 1.12.333 0 .6-.356.6-.8 0-.932-.074-.966-.72-.32m89.12 2.782c0 .837.024.841.8.138.44-.398.8-.786.8-.862s-.36-.138-.8-.138c-.553 0-.8.267-.8.862m-320.676.511c-.521.593-.291 1.027.543 1.027.293 0 .533-.36.533-.8 0-.922-.394-1.005-1.076-.227m228.356-.093c-.653.653-.603 1.12.12 1.12.333 0 .6-.356.6-.8 0-.932-.074-.966-.72-.32M149.2 75c0 .33.158.6.351.6s.575-.27.849-.6c.416-.501.358-.6-.351-.6-.488 0-.849.255-.849.6m138.8.8c-.416.501-.358.6.351.6.488 0 .849-.255.849-.6 0-.33-.158-.6-.351-.6s-.575.27-.849.6M60.08 81.68c-.653.653-.603 1.12.12 1.12.333 0 .6-.356.6-.8 0-.932-.074-.966-.72-.32m320.458 11.737c-.13.34-.129.725.003.857.346.346 1.492-.697 1.231-1.119-.341-.553-.973-.418-1.234.262M284.9 97.425c-.696.753-.627.975.3.975.44 0 .8-.259.8-.576 0-.835-.522-1.024-1.1-.399M146.2 99.6c-.45.729.218 1.24.826.632.315-.316.574-.678.574-.803 0-.391-1.139-.251-1.4.171m-89.32 4.08c-.264.264-.48.624-.48.8 0 .477 1.111.387 1.422-.115.411-.666-.383-1.244-.942-.685M377.4 115.2c-.432.7.209 1.291.836.77.31-.257.564-.626.564-.819 0-.482-1.095-.444-1.4.049M143 121.6c-.45.729.218 1.24.826.632.315-.316.574-.678.574-.803 0-.391-1.139-.251-1.4.171m138.63.964c-.321.386-.336.647-.049.824.558.345 1.219-.095 1.219-.812 0-.734-.566-.74-1.17-.012M53.7 128.625c-.696.753-.627.975.3.975.44 0 .8-.259.8-.576 0-.835-.522-1.024-1.1-.399m320.7 12.224c0 .709.099.767.6.351.33-.274.6-.656.6-.849s-.27-.351-.6-.351c-.345 0-.6.361-.6.849m-234.4 6c0 .709.099.767.6.351.33-.274.6-.656.6-.849s-.27-.351-.6-.351c-.345 0-.6.361-.6.849m138.88.431c-.653.653-.603 1.12.12 1.12.333 0 .6-.356.6-.8 0-.932-.074-.966-.72-.32m-228.42 3.362c-.298.336-.44.711-.318.834.397.396 1.458-.232 1.458-.863 0-.772-.443-.761-1.14.029m320.74 15.007c0 .709.099.767.6.351.33-.274.6-.656.6-.849s-.27-.351-.6-.351c-.345 0-.6.361-.6.849m-95.52 3.631c-.653.653-.603 1.12.12 1.12.333 0 .6-.356.6-.8 0-.932-.074-.966-.72-.32M136.8 171.8c0 .33.158.6.351.6s.575-.27.849-.6c.416-.501.358-.6-.351-.6-.488 0-.849.255-.849.6m-89.6 4c-.416.501-.358.6.351.6.488 0 .849-.255.849-.6 0-.33-.158-.6-.351-.6s-.575.27-.849.6M368 187.4c0 .33.158.6.351.6s.575-.27.849-.6c.416-.501.358-.6-.351-.6-.488 0-.849.255-.849.6m-320.972 5.755c-.261.422.885 1.465 1.231 1.119.333-.333-.149-1.474-.623-1.474a.81.81 0 0 0-.608.355m86.71.262c-.13.34-.129.725.003.857.346.346 1.492-.697 1.231-1.119-.341-.553-.973-.418-1.234.262m141.462-.266c0 .193.27.575.6.849.501.416.6.358.6-.351 0-.488-.255-.849-.6-.849-.33 0-.6.158-.6.351m89.738.266c-.13.34-.129.725.003.857.346.346 1.492-.697 1.231-1.119-.341-.553-.973-.418-1.234.262m-314.71 2.938c-.261.422.885 1.465 1.231 1.119.333-.333-.149-1.474-.623-1.474a.81.81 0 0 0-.608.355m80.31.262c-.13.34-.129.725.003.857.285.285 1.459-.619 1.459-1.123 0-.604-1.213-.383-1.462.266m147.748-.369c-.245.244.644 1.352 1.085 1.352.126 0 .229-.36.229-.8 0-.759-.78-1.087-1.314-.552m83.452.369c-.13.34-.129.725.003.857.285.285 1.459-.619 1.459-1.123 0-.604-1.213-.383-1.462.266M53.2 199.551c0 .193.254.562.564.819.627.521 1.268-.07.836-.77-.305-.493-1.4-.531-1.4-.049m74.2.049c-.432.7.209 1.291.836.77.31-.257.564-.626.564-.819 0-.482-1.095-.444-1.4.049m153.8-.171c0 .296 1.075 1.371 1.371 1.371.126 0 .229-.36.229-.8 0-.533-.267-.8-.8-.8-.44 0-.8.103-.8.229m77.4.171c-.432.7.209 1.291.836.77.31-.257.564-.626.564-.819 0-.482-1.095-.444-1.4.049m-74.2 3.029c0 .441 1.108 1.33 1.352 1.085.535-.534.207-1.314-.552-1.314-.44 0-.8.103-.8.229m71.2.62c0 .709.099.767.6.351.33-.274.6-.656.6-.849s-.27-.351-.6-.351c-.345 0-.6.361-.6.849m-305.17 3.715c-.321.386-.336.647-.049.824.558.345 1.219-.095 1.219-.812 0-.734-.566-.74-1.17-.012m70.77.012c0 .717.661 1.157 1.219.812.287-.177.272-.438-.049-.824-.604-.728-1.17-.722-1.17.012m160.43-.012c-.321.386-.336.647-.049.824.558.345 1.219-.095 1.219-.812 0-.734-.566-.74-1.17-.012m70.77.012c0 .717.661 1.157 1.219.812.287-.177.272-.438-.049-.824-.604-.728-1.17-.722-1.17.012M52 209.798c0 1.204-.132 1.402-.938 1.402-1.143 0-2.262 1.154-2.262 2.331 0 .645-.242.869-.938.869-1.143 0-2.262 1.154-2.262 2.331 0 .721-.231.869-1.353.869-1.588 0-1.833.546-1.842 4.1L42.4 224H41h-1.4v12.376 12.376l-1.5.124-1.5.124-.106 10.876-.107 10.876-1.493.124L33.4 271l-.106 12.3-.106 12.3h-1.114c-2.043 0-2.074.172-2.074 11.48v10.52h-1.357c-1.766 0-1.843.259-1.843 6.2s.077 6.2 1.843 6.2c1.157 0 1.357.138 1.357.938 0 1.143 1.154 2.262 2.331 2.262.645 0 .869.242.869.938 0 1.143 1.154 2.262 2.331 2.262.721 0 .869.231.869 1.357 0 1.82.103 1.843 8.433 1.843H52v1.4 1.4h3.2 3.2v1.6 1.6h3c2.956 0 3 .015 3 1.029 0 1.312.859 2.171 2.171 2.171H67.6v6.2 6.2h1.6 1.6v6.165 6.165l1.59.268 1.59.269.11 6.066.11 6.067 24.955.103c26.817.111 26.045.17 26.045-2.001 0-.988.1-1.117.564-.732.386.321.647.336.824.049.17-.275 3.926-.419 10.956-.419 11.403 0 12.668.183 13.111 1.9.226.877.371.9 5.688.914l25.517.24c21.861.246 21.74.257 21.74-2.041 0-.339.237-.497.56-.373.307.118.678.022.823-.213.401-.648 21.977-.584 23.022.069.633.395.957.395 1.59 0 1.045-.652 1.742-.631 1.483.046-.115.298.222 1.006.749 1.573l.956 1.032 9.909-.073 9.908-.074.614-1.229c.338-.675.817-1.161 1.064-1.078s.566-.04.709-.272c.176-.284 5.879-.421 17.557-.421 18.006 0 18.256-.023 18.256-1.68 0-.453.296-.72.8-.72.44 0 .8-.18.8-.4 0-.239 1.571-.402 3.9-.406 4.353-.007 4.534-.071 5.262-1.872.431-1.066.759-1.299 1.978-1.4l1.46-.122.109-7.7.108-7.7h1.345c1.56 0 1.824-.562 1.833-3.9.004-1.802.114-2.1.772-2.1 1.827 0 2.033-.348 2.033-3.443 0-2.909.017-2.957 1.029-2.957 1.312 0 2.171-.859 2.171-2.171 0-.839.19-1.029 1.029-1.029 1.312 0 2.171-.859 2.171-2.171 0-.839.19-1.029 1.029-1.029 1.241 0 2.171-.844 2.171-1.971 0-.783.221-.829 3.967-.829 4.909 0 5.233-.114 5.233-1.843V336.4h4.386c4.709 0 5.214-.23 5.214-2.374 0-.569.258-.826.829-.826 1.127 0 1.971-.93 1.971-2.171 0-.839.19-1.029 1.029-1.029 1.312 0 2.171-.859 2.171-2.171 0-.934.148-1.029 1.6-1.029h1.6v-9.165-9.165l1.6-.27 1.6-.27v-12.365V283.2h1.357c1.875 0 1.843.228 1.843-13.015v-11.749l1.363-.255c1.826-.343 1.825-.337 1.832-11.856l.005-9.874 1.3-.126 1.3-.125.107-9.3.108-9.3h-1.364c-1.138 0-1.408-.174-1.627-1.048-.34-1.354-1.154-2.152-2.195-2.152-.612 0-.829-.255-.829-.977 0-1.042-1.309-2.223-2.464-2.223-.481 0-.723-.388-.811-1.3l-.125-1.3-34.3-.102-34.3-.102v1.402c0 1.204-.132 1.402-.938 1.402-1.143 0-2.262 1.154-2.262 2.331 0 .62-.244.869-.853.869-1.004 0-2.347 1.408-2.347 2.461 0 .481-.29.739-.829.739-1.127 0-1.971.93-1.971 2.171 0 .934-.148 1.029-1.6 1.029h-1.6v10.795 10.796l-1.6.255-1.6.256v12.325 12.325l-1.5.124-1.5.124-.106 12.262-.105 12.261-1.495.353-1.494.353-.109 7.686-.108 7.685h-52.992H155.2v1.4 1.4h-18c-16.117 0-19.927-.203-17.2-.916.774-.202.8-.546.8-10.447V289.6h.971c2.191 0 2.229-.223 2.229-13.229V264.4h1.4 1.4V252v-12.4h.967c2.321 0 2.233.444 2.233-11.243V217.6h-1.6c-1.452 0-1.6-.095-1.6-1.029 0-1.224-.841-2.171-1.928-2.171-.519 0-.877-.365-1.055-1.075-.301-1.2-1.27-2.093-2.292-2.112-.465-.009-.713-.416-.8-1.313l-.125-1.3-34.3-.102-34.3-.102v1.402m72.4.153c0 .488.255.849.6.849.33 0 .6-.158.6-.351s-.27-.575-.6-.849c-.501-.416-.6-.358-.6.351m-77.2.249c-.416.501-.358.6.351.6.488 0 .849-.255.849-.6 0-.33-.158-.6-.351-.6s-.575.27-.849.6m231.2 0c-.416.501-.358.6.351.6.488 0 .849-.255.849-.6 0-.33-.158-.6-.351-.6s-.575.27-.849.6m77.2 0c0 .345.361.6.849.6.709 0 .767-.099.351-.6-.274-.33-.656-.6-.849-.6s-.351.27-.351.6m-232.992 5.586l5.392 5.386v7.609 7.609l-1.6 1.01-1.6 1.01v11.424c0 11.467-.126 12.566-1.44 12.566-1.628 0-1.76.937-1.76 12.53 0 11.742-.135 12.67-1.848 12.67-1.188 0-1.387 1.652-1.33 10.996.059 9.604-.089 10.604-1.571 10.604-1.316 0-1.943 2.353-.951 3.571.699.86.715.861 20.276.838 20.432-.023 21.024-.071 21.024-1.7 0-1.538-1.014-1.509 53.143-1.509l52.628-.629c.522-.521.629-1.776.629-7.39v-6.763l1.1-.681c2.134-1.321 2.1-1.106 2.1-13.213 0-6.39.156-11.324.358-11.324.196 0 .93-.535 1.631-1.19l1.274-1.189-.08-10.911c-.08-10.818.041-12.31.998-12.31 1.76 0 1.941-1.114 1.855-11.397-.057-6.748.051-9.803.346-9.803.525 0 12.818-12.299 12.818-12.824 0-.232 12.138-.376 31.6-.376l31.6.389c0 .214 2.25 2.624 5 5.356l5 4.968v5.912c0 6.09-.322 7.375-1.848 7.375-1.149 0-1.352 1.673-1.352 11.164v9.618l-1.1.681c-2.132 1.32-2.1 1.119-2.1 13.042 0 11.388-.115 12.295-1.562 12.295-1.486 0-1.695 1.662-1.606 12.804.071 8.865-.016 10.961-.472 11.406-.308.299-1.074 1.015-1.702 1.591l-1.143 1.047.133 7.676c.135 7.815.03 8.502-1.421 9.303-.426.234-.966.767-1.2 1.183-.621 1.101-1.31 1.79-1.789 1.79-.231 0-.734.495-1.119 1.1s-.974 1.266-1.309 1.469-1.28 1.098-2.099 1.989l-1.49 1.618-2.811-.115c-3.564-.145-4.166.06-5.167 1.757l-.816 1.382h-3.44c-3.358 0-4.987.406-4.987 1.243 0 .354-7.109 7.543-8.972 9.073-.417.342-.628 1.182-.628 2.495 0 1.874-.085 2.033-1.6 2.989-1.549.978-1.6 1.08-1.6 3.2s-.051 2.222-1.6 3.2l-1.6 1.01v6.79 6.79l-1.639 1.035c-1.221.771-1.588 1.23-1.437 1.804.298 1.142-.19 1.266-4.86 1.229-6.645-.052-9.086.342-8.969 1.448.071.662-.114.894-.712.894-.445 0-.911.269-1.037.598s-.399.493-.605.366-7.252-.249-15.658-.269c-16.205-.038-17.398.084-16.875 1.729.138.437.059.776-.181.776-.235 0-.427.225-.428.5 0 .381-1.657.5-6.949.5-5.395 0-6.906-.112-6.757-.5.12-.312-.162-.502-.75-.506-.977-.006-2.583-.776-1.643-.788.897-.011.526-.816-.569-1.232-1.5-.57-30.779-.592-32.231-.024-1.165.455-1.431 1.063-.6 1.365.275.101-.186.318-1.024.483-.876.172-1.45.492-1.351.751.126.328-2.765.451-10.58.451-8.438 0-10.712-.108-10.562-.5.13-.34-.245-.5-1.172-.5-.75 0-1.475-.18-1.611-.4s.033-.4.376-.4c.968 0 .736-.777-.355-1.192-.555-.211-11.601-.414-25.5-.469-25.504-.101-26.748-.029-26.153 1.521.656 1.711.271 1.74-23.307 1.74-12.317 0-22.68-.109-23.028-.243-.535-.205-.633-1.101-.633-5.795v-5.552l-1.61-1.017-1.611-1.016.047-5.285c.041-4.581-.043-5.338-.632-5.688-2.546-1.512-2.506-1.399-2.287-6.378.213-4.814-.255-6.626-1.711-6.626-.322 0-1.04-.72-1.596-1.6-.961-1.523-1.108-1.6-3.034-1.6-1.854 0-3.166-.597-3.166-1.44 0-.983-1.453-1.76-3.291-1.76-1.878 0-3.109-.611-3.109-1.543 0-1.408-1.183-1.657-7.882-1.657-6.81 0-8.118-.334-8.118-2.07 0-.191-.405-.532-.9-.758s-1.307-1.032-1.804-1.791-1.132-1.381-1.411-1.381-.773-.39-1.097-.866c-.747-1.099-1.623-1.975-2.722-2.722-.77-.523-.864-.946-.851-3.8l.015-3.212 1.585-1.096 1.585-1.096v-9.673c0-10.124.17-11.135 1.872-11.135 1.146 0 1.369-2.196 1.302-12.843-.071-11.26-.055-11.394 1.472-11.975 1.645-.625 1.834-1.933 1.689-11.662-.142-9.558-.145-9.543 1.731-10.478l.934-.465.106-11.523c.106-11.512.245-12.654 1.534-12.654 1.022 0 1.76-1.452 1.76-3.462 0-1.176.17-2.138.379-2.138.494 0 9.621-9.127 9.621-9.621 0-.235 11.838-.379 31.208-.379h31.208l5.392 5.386M44.48 212.88c-.653.653-.603 1.12.12 1.12.333 0 .6-.356.6-.8 0-.932-.074-.966-.72-.32m82.922-.083c-.337.544.113 1.203.822 1.203.729 0 .73-.303.002-1.032-.36-.359-.668-.423-.824-.171m148.278.083c-.653.653-.603 1.12.12 1.12.333 0 .6-.356.6-.8 0-.932-.074-.966-.72-.32m82.932-.099c-.345.558.095 1.219.812 1.219.734 0 .74-.566.012-1.17-.386-.321-.647-.336-.824-.049M41.28 216.08c-.653.653-.603 1.12.12 1.12.333 0 .6-.356.6-.8 0-.932-.074-.966-.72-.32m89.322-.083c-.337.544.113 1.203.822 1.203.729 0 .73-.303.002-1.032-.36-.359-.668-.423-.824-.171m141.878.083c-.264.264-.48.624-.48.8 0 .477 1.111.387 1.422-.115.411-.666-.383-1.244-.942-.685m89.332-.099c-.345.558.095 1.219.812 1.219.734 0 .74-.566.012-1.17-.386-.321-.647-.336-.824-.049m-92.62 3.429c-.278.335-.398.717-.266.849.409.41 1.474-.202 1.474-.846 0-.784-.559-.785-1.208-.003M38.03 222.564c-.321.386-.336.647-.049.824.558.345 1.219-.095 1.219-.812 0-.734-.566-.74-1.17-.012m323.57 14.769c0 .863.454 1.07 1.048.477.756-.756.693-1.01-.248-1.01-.44 0-.8.24-.8.533M130.4 240.6c0 .33.158.6.351.6s.575-.27.849-.6c.416-.501.358-.6-.351-.6-.488 0-.849.255-.849.6m135.6.8c-.416.501-.358.6.351.6.488 0 .849-.255.849-.6 0-.33-.158-.6-.351-.6s-.575.27-.849.6m-231.1 6.025c-.696.753-.627.975.3.975.44 0 .8-.259.8-.576 0-.835-.522-1.024-1.1-.399M358.6 258.8c-.431.697.208 1.292.831.774.308-.256.462-.624.341-.819-.292-.472-.866-.45-1.172.045m-231.2 6.4c-.432.7.209 1.291.836.77.31-.257.564-.626.564-.819 0-.482-1.095-.444-1.4.049m135.88.88c-.653.653-.603 1.12.12 1.12.333 0 .6-.356.6-.8 0-.932-.074-.966-.72-.32m-231.576 3.314c-.313.355-.35.654-.1.808.538.333 1.196-.121 1.196-.826 0-.722-.451-.715-1.096.018M355.6 284.449c0 .709.099.767.6.351.33-.274.6-.656.6-.849s-.27-.351-.6-.351c-.345 0-.6.361-.6.849m-231.2 6.4c0 .709.099.767.6.351.33-.274.6-.656.6-.849s-.27-.351-.6-.351c-.345 0-.6.361-.6.849m135.2.551c-.416.501-.358.6.351.6.488 0 .849-.255.849-.6 0-.33-.158-.6-.351-.6s-.575.27-.849.6m-231.2 3.2c-.416.501-.358.6.351.6.488 0 .849-.255.849-.6 0-.33-.158-.6-.351-.6s-.575.27-.849.6m125.23 12.364c-.321.386-.336.647-.049.824.558.345 1.219-.095 1.219-.812 0-.734-.566-.74-1.17-.012m198.908 2.053c-.13.34-.129.725.003.857.346.346 1.492-.697 1.231-1.119-.341-.553-.973-.418-1.234.262M25.68 316.08c-.653.653-.603 1.12.12 1.12.333 0 .6-.356.6-.8 0-.932-.074-.966-.72-.32m323.658 11.737c-.13.34-.129.725.003.857.346.346 1.492-.697 1.231-1.119-.341-.553-.973-.418-1.234.262M25.2 330.751c0 .193.27.575.6.849.501.416.6.358.6-.351 0-.488-.255-.849-.6-.849-.33 0-.6.158-.6.351m320.938.266c-.13.34-.129.725.003.857.285.285 1.459-.619 1.459-1.123 0-.604-1.213-.383-1.462.266M28.4 333.951c0 .193.27.575.6.849.501.416.6.358.6-.351 0-.488-.255-.849-.6-.849-.33 0-.6.158-.6.351M343 334c-.432.7.209 1.291.836.77.31-.257.564-.626.564-.819 0-.482-1.095-.444-1.4.049m-311.4 3.4c.274.33.656.6.849.6s.351-.27.351-.6c0-.345-.361-.6-.849-.6-.709 0-.767.099-.351.6m308.4.249c0 .709.099.767.6.351.33-.274.6-.656.6-.849s-.27-.351-.6-.351c-.345 0-.6.361-.6.849M34.8 340.6c.274.33.656.6.849.6s.351-.27.351-.6c0-.345-.361-.6-.849-.6-.709 0-.767.099-.351.6m295.6 0c0 .33.158.6.351.6s.575-.27.849-.6c.416-.501.358-.6-.351-.6-.488 0-.849.255-.849.6m-280.172 2.555c-.261.422.885 1.465 1.231 1.119.333-.333-.149-1.474-.623-1.474a.81.81 0 0 0-.608.355m271.11.262c-.345.899.129 1.174.824.478.33-.33.488-.711.352-.847-.428-.429-.93-.271-1.176.369M56.4 346.351c0 .193.254.562.564.819.627.521 1.268-.07.836-.77-.305-.493-1.4-.531-1.4-.049m261.6.449c0 .941.254 1.004 1.01.248.593-.594.386-1.048-.477-1.048-.293 0-.533.36-.533.8m-255.2 2.751c0 .193.27.575.6.849.501.416.6.358.6-.351 0-.488-.255-.849-.6-.849-.33 0-.6.158-.6.351m252 .449c0 .947.253 1.004 1.029.229s.718-1.029-.229-1.029c-.533 0-.8.267-.8.8m-3.2 6.2c0 .33.158.6.351.6s.575-.27.849-.6c.416-.501.358-.6-.351-.6-.488 0-.849.255-.849.6m-245.772 5.755c-.261.422.885 1.465 1.231 1.119.333-.333-.149-1.474-.623-1.474a.81.81 0 0 0-.608.355M308.6 362c-.432.7.209 1.291.836.77.31-.257.564-.626.564-.819 0-.482-1.095-.444-1.4.049M69.2 375c.274.33.656.6.849.6s.351-.27.351-.6c0-.345-.361-.6-.849-.6-.709 0-.767.099-.351.6m222 .6c-.368.688-.3.807.486.847 2.114.11 2.639-.173 1.922-1.037-.708-.854-1.9-.76-2.408.19m5.58 1.024c-.395.476-.297.576.571.576 1.124 0 1.418-.573.478-.933-.314-.121-.786.04-1.049.357M305.6 378c0 .954.614 1.061.957.167s.316-.967-.357-.967c-.333 0-.6.356-.6.8m-179.212.614c-.828.998-.489 1.03 10.642.999 11.468-.031 11.103-.001 10.76-.894-.346-.903-20.658-1.002-21.402-.105m79.692-.134c-.753.753-.579 1.014.82 1.227 2.028.308 3.1-.415 1.695-1.143-1.328-.69-1.891-.708-2.515-.084m22.72.073c0 .33.18.711.4.847s.4-.023.4-.353-.18-.711-.4-.847-.4.023-.4.353m25.578.074c-.82.988-.525 1.01 13.247.984 13.975-.026 13.991-.028 13.179-1.007-.752-.905-25.673-.884-26.426.023" fill="#e45c44"/></svg>