<svg id="svg" version="1.1" xmlns="http://www.w3.org/2000/svg" xmlns:xlink="http://www.w3.org/1999/xlink" width="400" height="400" viewBox="0, 0, 400,400"><g id="svgg"><path id="path0" d="M360.900 38.998 C 360.625 39.311,360.400 39.726,360.400 39.921 C 360.400 40.843,358.839 41.600,356.936 41.600 C 355.193 41.600,354.864 41.733,354.381 42.635 C 354.077 43.204,353.147 44.209,352.314 44.868 C 351.481 45.528,350.800 46.316,350.800 46.620 C 350.800 47.431,349.480 48.000,347.599 48.000 C 345.954 48.000,342.443 50.870,340.953 53.432 C 340.560 54.108,340.078 54.192,336.920 54.130 C 333.711 54.067,333.274 54.146,332.767 54.880 C 330.959 57.496,331.924 57.301,321.178 57.230 C 311.507 57.167,311.393 57.176,310.800 58.049 C 310.042 59.165,309.170 60.038,308.066 60.788 C 307.590 61.112,307.200 61.603,307.200 61.879 C 307.200 62.155,306.705 62.698,306.100 63.086 C 304.818 63.906,304.000 64.644,304.000 64.980 C 304.000 65.290,299.690 69.600,299.380 69.600 C 299.044 69.600,298.306 70.418,297.486 71.700 C 297.098 72.305,296.593 72.800,296.362 72.800 C 295.401 72.800,294.800 74.017,294.800 75.966 C 294.800 77.891,294.722 78.039,293.207 78.996 L 291.614 80.001 291.507 90.089 L 291.400 100.177 290.466 100.642 C 288.653 101.545,288.659 101.507,288.629 113.447 C 288.602 124.200,288.554 124.939,287.853 125.356 C 285.344 126.847,285.500 125.972,285.574 138.149 L 285.642 149.254 284.021 150.736 L 282.400 152.218 282.400 161.620 C 282.400 171.171,282.159 172.800,280.749 172.800 C 279.391 172.800,279.200 173.883,279.200 181.594 L 279.200 189.244 281.623 191.622 C 282.955 192.930,284.205 194.000,284.401 194.000 C 284.596 194.000,284.991 194.478,285.278 195.063 C 285.565 195.648,286.160 196.323,286.600 196.563 C 287.040 196.803,287.528 197.196,287.684 197.436 C 287.840 197.676,288.290 198.267,288.684 198.751 L 289.400 199.629 320.600 199.632 L 351.800 199.635 353.000 198.218 C 353.660 197.438,354.348 196.800,354.529 196.800 C 354.951 196.800,355.629 196.083,356.514 194.700 C 356.902 194.095,357.445 193.600,357.721 193.600 C 357.997 193.600,358.488 193.210,358.812 192.734 C 359.559 191.635,360.435 190.759,361.534 190.012 C 362.238 189.534,362.400 189.029,362.400 187.321 C 362.400 185.464,362.528 185.137,363.500 184.519 C 365.284 183.384,365.337 183.044,365.236 173.493 C 365.135 163.981,365.381 162.400,366.960 162.400 C 368.354 162.400,368.471 161.419,368.419 150.220 C 368.368 139.248,368.542 137.600,369.752 137.600 C 371.465 137.600,371.600 136.672,371.600 124.930 C 371.600 113.337,371.732 112.400,373.360 112.400 C 374.648 112.400,374.800 111.242,374.800 101.438 L 374.800 91.618 375.900 90.914 C 378.148 89.476,378.057 90.044,377.961 77.945 C 377.866 65.980,377.924 65.600,379.834 65.600 C 380.098 65.600,380.427 65.307,380.564 64.949 C 380.844 64.219,380.166 63.200,379.400 63.200 C 378.042 63.200,377.820 62.013,377.938 55.363 L 378.055 48.821 376.787 48.051 C 376.090 47.627,375.190 46.738,374.788 46.076 C 374.385 45.413,373.681 44.753,373.223 44.607 C 372.766 44.462,372.115 43.808,371.776 43.154 C 371.438 42.500,370.721 41.765,370.183 41.519 C 369.645 41.274,368.850 40.472,368.416 39.737 C 367.519 38.218,362.060 37.681,360.900 38.998 M135.447 46.156 C 134.697 47.737,134.171 48.000,131.754 48.000 C 130.147 48.000,129.893 48.135,129.157 49.382 C 128.246 50.928,127.520 51.274,125.474 51.136 C 124.068 51.041,122.804 51.707,122.795 52.549 C 122.792 52.797,122.175 53.398,121.424 53.884 C 120.673 54.371,119.819 55.271,119.526 55.884 C 119.055 56.872,118.746 57.014,116.845 57.123 C 114.620 57.250,114.267 57.454,113.086 59.300 C 112.402 60.368,112.273 60.400,108.691 60.415 L 105.000 60.430 103.904 62.015 L 102.808 63.600 91.413 63.600 L 80.018 63.600 79.337 64.700 C 78.267 66.428,77.588 66.800,75.505 66.800 C 73.774 66.800,73.489 66.928,72.886 67.979 C 72.514 68.628,71.794 69.348,71.286 69.579 C 70.778 69.810,70.071 70.509,69.713 71.132 C 69.356 71.754,68.554 72.556,67.932 72.913 L 66.800 73.563 66.800 78.785 L 66.800 84.008 65.215 85.104 L 63.630 86.200 63.615 96.038 C 63.600 106.156,63.434 107.200,61.840 107.200 C 60.526 107.200,60.400 108.299,60.400 119.766 L 60.400 131.190 58.782 132.211 L 57.165 133.232 57.229 143.019 C 57.294 152.929,57.155 154.000,55.800 154.000 C 54.388 154.000,54.259 155.045,54.229 166.682 C 54.202 177.401,54.154 178.139,53.453 178.556 C 51.127 179.939,51.123 179.948,51.097 184.663 L 51.073 189.094 54.745 192.766 L 58.416 196.438 90.926 196.438 C 123.410 196.438,124.800 196.394,124.800 195.366 C 124.800 195.065,125.295 194.505,125.900 194.123 C 126.505 193.740,127.270 193.085,127.600 192.666 C 127.930 192.248,128.560 191.561,129.000 191.139 C 129.440 190.718,130.061 190.113,130.381 189.794 C 130.856 189.321,130.965 187.455,130.981 179.593 L 131.000 169.971 132.536 168.680 L 134.071 167.389 134.020 156.393 C 133.965 144.629,133.989 144.477,136.007 143.472 L 137.000 142.977 137.200 131.389 C 137.396 120.012,137.527 118.800,138.562 118.800 C 140.227 118.800,140.400 117.749,140.400 107.665 L 140.400 97.992 141.985 96.896 L 143.570 95.800 143.585 84.309 L 143.600 72.818 144.700 72.114 C 146.607 70.894,146.721 70.637,146.733 67.526 L 146.745 64.516 145.150 63.620 C 143.265 62.561,142.992 60.219,144.657 59.394 C 146.568 58.447,146.762 58.046,146.753 55.067 C 146.743 52.165,146.166 50.800,144.948 50.800 C 144.658 50.800,144.143 50.263,143.804 49.607 C 143.464 48.950,142.650 48.136,141.993 47.796 C 141.337 47.457,140.800 47.032,140.800 46.851 C 140.800 44.577,136.464 44.015,135.447 46.156 M54.800 210.779 C 54.800 211.273,45.673 220.400,45.179 220.400 C 44.970 220.400,44.800 221.362,44.800 222.538 C 44.800 224.548,44.062 226.000,43.040 226.000 C 41.751 226.000,41.612 227.142,41.506 238.654 L 41.400 250.177 40.466 250.642 C 38.590 251.577,38.593 251.562,38.735 261.120 C 38.880 270.849,38.691 272.157,37.046 272.782 C 35.519 273.363,35.503 273.497,35.574 284.757 C 35.641 295.404,35.418 297.600,34.272 297.600 C 32.570 297.600,32.400 298.611,32.400 308.735 L 32.400 318.408 30.815 319.504 L 29.230 320.600 29.215 323.812 C 29.202 326.666,29.296 327.089,30.066 327.612 C 31.165 328.359,32.041 329.235,32.788 330.334 C 33.112 330.810,33.605 331.200,33.885 331.200 C 34.164 331.200,34.799 331.821,35.296 332.581 C 35.793 333.340,36.605 334.146,37.100 334.372 C 37.595 334.598,38.000 334.939,38.000 335.130 C 38.000 336.866,39.308 337.200,46.118 337.200 C 52.817 337.200,54.000 337.449,54.000 338.857 C 54.000 339.789,55.231 340.400,57.109 340.400 C 58.947 340.400,60.400 341.177,60.400 342.160 C 60.400 343.003,61.712 343.600,63.566 343.600 C 65.492 343.600,65.639 343.677,66.600 345.200 C 67.156 346.080,67.874 346.800,68.196 346.800 C 69.652 346.800,70.120 348.612,69.907 353.426 C 69.688 358.405,69.648 358.292,72.194 359.804 C 72.783 360.154,72.867 360.911,72.826 365.492 L 72.779 370.777 74.390 371.793 L 76.000 372.810 76.000 378.362 C 76.000 383.056,76.098 383.952,76.633 384.157 C 76.981 384.291,87.344 384.400,99.661 384.400 C 123.239 384.400,123.624 384.371,122.968 382.660 C 122.373 381.110,123.617 381.038,149.121 381.139 C 163.020 381.194,174.066 381.397,174.621 381.608 C 175.712 382.023,175.944 382.800,174.976 382.800 C 174.633 382.800,174.464 382.980,174.600 383.200 C 174.736 383.420,175.461 383.600,176.211 383.600 C 177.138 383.600,177.513 383.760,177.383 384.100 C 177.233 384.492,179.507 384.600,187.945 384.600 C 195.760 384.600,198.651 384.477,198.525 384.149 C 198.426 383.890,199.000 383.570,199.876 383.398 C 200.714 383.233,201.175 383.016,200.900 382.915 C 200.069 382.613,200.335 382.005,201.500 381.550 C 202.952 380.982,232.231 381.004,233.731 381.574 C 234.826 381.990,235.197 382.795,234.300 382.806 C 233.360 382.818,234.966 383.588,235.943 383.594 C 236.531 383.598,236.813 383.788,236.693 384.100 C 236.544 384.488,238.055 384.600,243.450 384.600 C 248.742 384.600,250.399 384.481,250.399 384.100 C 250.400 383.825,250.592 383.600,250.827 383.600 C 251.067 383.600,251.146 383.261,251.008 382.824 C 250.485 381.179,251.678 381.057,267.883 381.095 C 276.289 381.115,283.335 381.236,283.541 381.364 C 283.747 381.491,284.019 381.326,284.146 380.998 C 284.272 380.669,284.738 380.400,285.183 380.400 C 285.781 380.400,285.966 380.168,285.895 379.506 C 285.778 378.400,288.219 378.006,294.864 378.058 C 299.534 378.095,300.022 377.971,299.724 376.829 C 299.573 376.255,299.940 375.796,301.161 375.025 L 302.800 373.990 302.800 367.200 L 302.800 360.410 304.400 359.400 C 305.949 358.422,306.000 358.320,306.000 356.200 C 306.000 354.080,306.051 353.978,307.600 353.000 C 309.115 352.044,309.200 351.885,309.200 350.011 C 309.200 348.698,309.411 347.858,309.828 347.516 C 311.691 345.986,318.800 338.797,318.800 338.443 C 318.800 337.606,320.429 337.200,323.787 337.200 L 327.227 337.200 328.043 335.818 C 329.044 334.121,329.646 333.916,333.210 334.061 L 336.021 334.176 337.511 332.558 C 338.330 331.667,339.274 330.773,339.610 330.569 C 339.945 330.366,340.534 329.705,340.919 329.100 C 341.304 328.495,341.807 328.000,342.038 328.000 C 342.517 328.000,343.206 327.311,343.827 326.210 C 344.061 325.794,344.601 325.261,345.027 325.027 C 346.478 324.226,346.583 323.539,346.448 315.724 L 346.315 308.048 347.458 307.001 C 348.086 306.425,348.852 305.709,349.160 305.410 C 349.616 304.965,349.703 302.869,349.632 294.004 C 349.543 282.862,349.752 281.200,351.238 281.200 C 352.685 281.200,352.800 280.293,352.800 268.905 C 352.800 256.982,352.768 257.183,354.900 255.863 L 356.000 255.182 356.000 245.564 C 356.000 236.073,356.203 234.400,357.352 234.400 C 358.878 234.400,359.200 233.115,359.200 227.025 L 359.200 221.113 354.200 216.145 C 351.450 213.413,349.200 211.003,349.200 210.789 C 349.200 210.540,337.799 210.400,317.600 210.400 C 298.138 210.400,286.000 210.544,286.000 210.776 C 286.000 211.301,273.707 223.600,273.182 223.600 C 272.887 223.600,272.779 226.655,272.836 233.403 C 272.922 243.686,272.741 244.800,270.981 244.800 C 270.024 244.800,269.903 246.292,269.983 257.110 L 270.063 268.021 268.789 269.210 C 268.088 269.865,267.354 270.400,267.158 270.400 C 266.956 270.400,266.800 275.334,266.800 281.724 C 266.800 293.831,266.834 293.616,264.700 294.937 L 263.600 295.618 263.600 302.381 C 263.600 307.995,263.493 309.250,262.971 309.771 C 262.406 310.336,257.082 310.400,210.343 310.400 C 156.186 310.400,157.200 310.371,157.200 311.909 C 157.200 313.538,156.608 313.586,136.176 313.609 C 116.615 313.632,116.599 313.631,115.900 312.771 C 114.908 311.553,115.535 309.200,116.851 309.200 C 118.333 309.200,118.481 308.200,118.422 298.596 C 118.365 289.252,118.564 287.600,119.752 287.600 C 121.465 287.600,121.600 286.672,121.600 274.930 C 121.600 263.337,121.732 262.400,123.360 262.400 C 124.674 262.400,124.800 261.301,124.800 249.834 L 124.800 238.410 126.400 237.400 L 128.000 236.390 128.000 228.781 L 128.000 221.172 122.608 215.786 L 117.216 210.400 86.008 210.400 C 66.638 210.400,54.800 210.544,54.800 210.779 M293.608 375.410 C 294.325 376.274,293.800 376.557,291.686 376.447 C 290.900 376.407,290.832 376.288,291.200 375.600 C 291.708 374.650,292.900 374.556,293.608 375.410 M298.400 376.843 C 298.400 377.039,297.928 377.200,297.351 377.200 C 296.483 377.200,296.385 377.100,296.780 376.624 C 297.266 376.038,298.400 376.191,298.400 376.843 M147.790 378.719 C 148.133 379.612,148.498 379.582,137.030 379.613 C 125.899 379.644,125.560 379.612,126.388 378.614 C 127.132 377.717,147.444 377.816,147.790 378.719 M208.595 378.564 C 209.597 379.083,209.624 379.158,208.941 379.516 C 208.164 379.923,205.600 379.707,205.600 379.235 C 205.600 378.091,207.056 377.765,208.595 378.564 M229.600 379.047 C 229.600 379.377,229.420 379.536,229.200 379.400 C 228.980 379.264,228.800 378.883,228.800 378.553 C 228.800 378.223,228.980 378.064,229.200 378.200 C 229.420 378.336,229.600 378.717,229.600 379.047 M280.804 378.604 C 281.616 379.583,281.600 379.585,267.625 379.611 C 253.853 379.637,253.558 379.615,254.378 378.627 C 255.131 377.720,280.052 377.699,280.804 378.604 M229.800 383.600 C 229.664 383.820,229.923 384.000,230.376 384.000 C 230.829 384.000,231.200 383.820,231.200 383.600 C 231.200 383.380,230.941 383.200,230.624 383.200 C 230.307 383.200,229.936 383.380,229.800 383.600 " stroke="none" fill="#e65940" fill-rule="evenodd"></path><path id="path1" d="M356.880 34.880 C 356.616 35.144,356.400 35.504,356.400 35.680 C 356.400 36.157,357.511 36.067,357.822 35.565 C 358.233 34.899,357.439 34.321,356.880 34.880 M371.200 35.151 C 371.200 35.639,371.455 36.000,371.800 36.000 C 372.130 36.000,372.400 35.842,372.400 35.649 C 372.400 35.456,372.130 35.074,371.800 34.800 C 371.299 34.384,371.200 34.442,371.200 35.151 M358.400 37.990 L 358.400 39.600 355.200 39.600 L 352.000 39.600 352.000 40.957 C 352.000 42.087,351.825 42.357,350.952 42.576 C 349.605 42.914,348.800 43.729,348.800 44.754 C 348.800 45.483,348.508 45.577,345.914 45.682 L 343.027 45.800 342.674 47.300 C 342.413 48.407,342.114 48.800,341.532 48.800 C 340.445 48.800,339.600 49.744,339.600 50.959 L 339.600 51.975 334.900 52.087 L 330.200 52.200 330.076 53.700 L 329.952 55.200 319.176 55.200 L 308.400 55.200 308.400 56.800 C 308.400 58.252,308.305 58.400,307.371 58.400 C 306.130 58.400,305.200 59.244,305.200 60.371 C 305.200 60.974,304.944 61.200,304.262 61.200 C 303.119 61.200,302.000 62.354,302.000 63.531 C 302.000 64.176,301.758 64.400,301.062 64.400 C 299.919 64.400,298.800 65.554,298.800 66.731 C 298.800 67.376,298.558 67.600,297.862 67.600 C 296.719 67.600,295.600 68.754,295.600 69.931 C 295.600 70.652,295.369 70.800,294.247 70.800 C 292.677 70.800,292.414 71.357,292.405 74.700 C 292.401 76.502,292.291 76.800,291.633 76.800 C 289.543 76.800,289.600 76.487,289.600 88.019 L 289.600 98.752 288.100 98.876 L 286.600 99.000 286.494 111.500 L 286.389 124.000 284.794 124.000 L 283.200 124.000 283.200 136.376 L 283.200 148.752 281.700 148.876 L 280.200 149.000 280.094 159.900 L 279.987 170.800 278.636 170.800 C 276.790 170.800,276.800 170.739,276.800 181.600 C 276.800 192.467,276.789 192.400,278.643 192.400 C 279.834 192.400,280.000 192.526,280.000 193.429 C 280.000 194.741,280.859 195.600,282.171 195.600 C 283.010 195.600,283.200 195.790,283.200 196.629 C 283.200 197.933,284.057 198.800,285.347 198.800 C 286.219 198.800,286.368 198.998,286.476 200.300 L 286.600 201.800 320.575 201.902 C 357.171 202.012,355.181 202.127,355.194 199.900 C 355.199 199.056,355.393 198.800,356.029 198.800 C 357.070 198.800,357.884 198.002,358.224 196.648 C 358.396 195.963,358.758 195.600,359.272 195.600 C 360.359 195.600,361.200 194.653,361.200 193.429 C 361.200 192.495,361.348 192.400,362.800 192.400 L 364.400 192.400 364.400 189.424 L 364.400 186.448 365.900 186.324 L 367.400 186.200 367.506 175.324 L 367.613 164.448 369.106 164.324 L 370.600 164.200 370.706 151.900 L 370.812 139.600 371.777 139.600 C 373.962 139.600,374.000 139.372,374.000 126.371 L 374.000 114.400 375.400 114.400 L 376.800 114.400 376.800 103.400 L 376.800 92.400 378.400 92.400 L 380.000 92.400 380.000 80.024 L 380.000 67.648 381.500 67.524 L 383.000 67.400 383.000 64.400 L 383.000 61.400 381.509 61.276 L 380.017 61.153 379.909 53.476 L 379.800 45.800 378.300 45.676 C 377.105 45.577,376.800 45.388,376.800 44.747 C 376.800 43.791,376.094 43.011,374.881 42.626 C 374.397 42.472,374.000 42.116,374.000 41.834 C 374.000 40.984,372.561 39.600,371.677 39.600 C 371.008 39.600,370.824 39.311,370.724 38.100 L 370.600 36.600 364.500 36.490 L 358.400 36.379 358.400 37.990 M350.430 38.164 C 350.109 38.550,350.094 38.811,350.381 38.988 C 350.939 39.333,351.600 38.893,351.600 38.176 C 351.600 37.442,351.034 37.436,350.430 38.164 M374.400 38.351 C 374.400 38.839,374.655 39.200,375.000 39.200 C 375.330 39.200,375.600 39.042,375.600 38.849 C 375.600 38.656,375.330 38.274,375.000 38.000 C 374.499 37.584,374.400 37.642,374.400 38.351 M368.416 39.737 C 368.850 40.472,369.645 41.274,370.183 41.519 C 370.721 41.765,371.438 42.500,371.776 43.154 C 372.115 43.808,372.766 44.462,373.223 44.607 C 373.681 44.753,374.385 45.413,374.788 46.076 C 375.190 46.738,376.090 47.627,376.787 48.051 L 378.055 48.821 377.938 55.363 C 377.820 62.013,378.042 63.200,379.400 63.200 C 380.166 63.200,380.844 64.219,380.564 64.949 C 380.427 65.307,380.098 65.600,379.834 65.600 C 377.924 65.600,377.866 65.980,377.961 77.945 C 378.057 90.044,378.148 89.476,375.900 90.914 L 374.800 91.618 374.800 101.438 C 374.800 111.242,374.648 112.400,373.360 112.400 C 371.732 112.400,371.600 113.337,371.600 124.930 C 371.600 136.672,371.465 137.600,369.752 137.600 C 368.542 137.600,368.368 139.248,368.419 150.220 C 368.471 161.419,368.354 162.400,366.960 162.400 C 365.381 162.400,365.135 163.981,365.236 173.493 C 365.337 183.044,365.284 183.384,363.500 184.519 C 362.528 185.137,362.400 185.464,362.400 187.321 C 362.400 189.029,362.238 189.534,361.534 190.012 C 360.435 190.759,359.559 191.635,358.812 192.734 C 358.488 193.210,357.997 193.600,357.721 193.600 C 357.445 193.600,356.902 194.095,356.514 194.700 C 355.629 196.083,354.951 196.800,354.529 196.800 C 354.348 196.800,353.660 197.438,353.000 198.218 L 351.800 199.635 320.600 199.632 L 289.400 199.629 288.684 198.751 C 288.290 198.267,287.840 197.676,287.684 197.436 C 287.528 197.196,287.040 196.803,286.600 196.563 C 286.160 196.323,285.565 195.648,285.278 195.063 C 284.991 194.478,284.596 194.000,284.401 194.000 C 284.205 194.000,282.955 192.930,281.623 191.622 L 279.200 189.244 279.200 181.594 C 279.200 173.883,279.391 172.800,280.749 172.800 C 282.159 172.800,282.400 171.171,282.400 161.620 L 282.400 152.218 284.021 150.736 L 285.642 149.254 285.574 138.149 C 285.500 125.972,285.344 126.847,287.853 125.356 C 288.554 124.939,288.602 124.200,288.629 113.447 C 288.659 101.507,288.653 101.545,290.466 100.642 L 291.400 100.177 291.507 90.089 L 291.614 80.001 293.207 78.996 C 294.722 78.039,294.800 77.891,294.800 75.966 C 294.800 74.017,295.401 72.800,296.362 72.800 C 296.593 72.800,297.098 72.305,297.486 71.700 C 298.306 70.418,299.044 69.600,299.380 69.600 C 299.690 69.600,304.000 65.290,304.000 64.980 C 304.000 64.644,304.818 63.906,306.100 63.086 C 306.705 62.698,307.200 62.155,307.200 61.879 C 307.200 61.603,307.590 61.112,308.066 60.788 C 309.170 60.038,310.042 59.165,310.800 58.049 C 311.393 57.176,311.507 57.167,321.178 57.230 C 331.924 57.301,330.959 57.496,332.767 54.880 C 333.274 54.146,333.711 54.067,336.920 54.130 C 340.078 54.192,340.560 54.108,340.953 53.432 C 342.443 50.870,345.954 48.000,347.599 48.000 C 349.480 48.000,350.800 47.431,350.800 46.620 C 350.800 46.316,351.481 45.528,352.314 44.868 C 353.147 44.209,354.077 43.204,354.381 42.635 C 354.864 41.733,355.193 41.600,356.936 41.600 C 358.839 41.600,360.400 40.843,360.400 39.921 C 360.400 37.821,367.193 37.665,368.416 39.737 M131.600 41.400 C 131.184 41.901,131.242 42.000,131.951 42.000 C 132.439 42.000,132.800 41.745,132.800 41.400 C 132.800 41.070,132.642 40.800,132.449 40.800 C 132.256 40.800,131.874 41.070,131.600 41.400 M142.800 41.400 C 142.800 41.745,143.161 42.000,143.649 42.000 C 144.358 42.000,144.416 41.901,144.000 41.400 C 143.726 41.070,143.344 40.800,143.151 40.800 C 142.958 40.800,142.800 41.070,142.800 41.400 M347.200 41.400 C 346.784 41.901,346.842 42.000,347.551 42.000 C 348.039 42.000,348.400 41.745,348.400 41.400 C 348.400 41.070,348.242 40.800,348.049 40.800 C 347.856 40.800,347.474 41.070,347.200 41.400 M377.200 41.400 C 377.200 41.745,377.561 42.000,378.049 42.000 C 378.758 42.000,378.816 41.901,378.400 41.400 C 378.126 41.070,377.744 40.800,377.551 40.800 C 377.358 40.800,377.200 41.070,377.200 41.400 M133.900 42.676 C 133.405 42.805,133.200 43.260,133.200 44.229 L 133.200 45.600 130.414 45.600 C 127.455 45.600,126.800 46.027,126.800 47.956 C 126.800 48.683,126.505 48.777,123.900 48.882 L 121.000 49.000 120.876 50.500 C 120.768 51.802,120.619 52.000,119.747 52.000 C 118.457 52.000,117.600 52.867,117.600 54.171 C 117.600 55.183,117.552 55.200,114.643 55.200 C 111.486 55.200,111.200 55.385,111.200 57.433 C 111.200 58.400,111.199 58.400,106.600 58.400 L 102.000 58.400 102.000 59.800 L 102.000 61.200 89.814 61.200 C 76.486 61.200,76.800 61.143,76.800 63.556 C 76.800 64.283,76.505 64.377,73.900 64.482 L 71.000 64.600 70.876 66.100 C 70.768 67.402,70.619 67.600,69.747 67.600 C 68.465 67.600,67.600 68.465,67.600 69.747 C 67.600 70.619,67.402 70.768,66.100 70.876 L 64.600 71.000 64.490 77.100 L 64.379 83.200 63.032 83.200 C 61.181 83.200,61.200 83.082,61.200 94.833 L 61.200 105.200 59.800 105.200 L 58.400 105.200 58.400 117.576 L 58.400 129.952 56.900 130.076 L 55.400 130.200 55.294 141.076 L 55.187 151.952 53.694 152.076 L 52.200 152.200 52.094 164.450 L 51.989 176.700 50.394 176.955 L 48.800 177.209 48.800 184.805 L 48.800 192.400 50.400 192.400 C 51.852 192.400,52.000 192.495,52.000 193.429 C 52.000 194.741,52.859 195.600,54.171 195.600 C 55.105 195.600,55.200 195.748,55.200 197.200 L 55.200 198.800 91.000 198.800 L 126.800 198.800 126.800 197.200 C 126.800 195.748,126.895 195.600,127.829 195.600 C 129.141 195.600,130.000 194.741,130.000 193.429 C 130.000 192.495,130.148 192.400,131.600 192.400 L 133.200 192.400 133.200 181.600 L 133.200 170.800 134.167 170.800 C 136.504 170.800,136.400 171.399,136.400 157.957 L 136.400 145.600 137.757 145.600 C 139.632 145.600,139.600 145.828,139.600 132.593 L 139.600 120.851 140.900 120.725 L 142.200 120.600 142.306 109.700 L 142.413 98.800 144.006 98.800 L 145.600 98.800 145.600 86.435 L 145.600 74.070 147.200 73.800 L 148.800 73.530 148.800 67.792 C 148.800 62.386,148.753 62.039,147.992 61.797 C 147.184 61.541,147.184 61.541,148.006 60.871 C 148.776 60.243,148.821 59.840,148.714 54.600 L 148.600 49.000 147.100 48.876 C 145.841 48.772,145.600 48.605,145.600 47.838 C 145.600 46.716,144.437 45.600,143.269 45.600 C 142.548 45.600,142.400 45.369,142.400 44.247 C 142.400 43.181,142.208 42.842,141.500 42.652 C 140.483 42.379,134.968 42.397,133.900 42.676 M125.680 44.080 C 125.027 44.733,125.077 45.200,125.800 45.200 C 126.133 45.200,126.400 44.844,126.400 44.400 C 126.400 43.468,126.326 43.434,125.680 44.080 M341.280 44.080 C 340.627 44.733,340.677 45.200,341.400 45.200 C 341.733 45.200,342.000 44.844,342.000 44.400 C 342.000 43.468,341.926 43.434,341.280 44.080 M146.000 44.600 C 146.000 44.945,146.361 45.200,146.849 45.200 C 147.558 45.200,147.616 45.101,147.200 44.600 C 146.926 44.270,146.544 44.000,146.351 44.000 C 146.158 44.000,146.000 44.270,146.000 44.600 M380.400 44.600 C 380.400 44.945,380.761 45.200,381.249 45.200 C 381.958 45.200,382.016 45.101,381.600 44.600 C 381.326 44.270,380.944 44.000,380.751 44.000 C 380.558 44.000,380.400 44.270,380.400 44.600 M140.053 45.661 C 140.464 46.135,140.800 46.670,140.800 46.851 C 140.800 47.032,141.337 47.457,141.993 47.796 C 142.650 48.136,143.464 48.950,143.804 49.607 C 144.143 50.263,144.658 50.800,144.948 50.800 C 146.166 50.800,146.743 52.165,146.753 55.067 C 146.762 58.046,146.568 58.447,144.657 59.394 C 142.992 60.219,143.265 62.561,145.150 63.620 L 146.745 64.516 146.733 67.526 C 146.721 70.637,146.607 70.894,144.700 72.114 L 143.600 72.818 143.585 84.309 L 143.570 95.800 141.985 96.896 L 140.400 97.992 140.400 107.665 C 140.400 117.749,140.227 118.800,138.562 118.800 C 137.527 118.800,137.396 120.012,137.200 131.389 L 137.000 142.977 136.007 143.472 C 133.989 144.477,133.965 144.629,134.020 156.393 L 134.071 167.389 132.536 168.680 L 131.000 169.971 130.981 179.593 C 130.965 187.455,130.856 189.321,130.381 189.794 C 130.061 190.113,129.440 190.718,129.000 191.139 C 128.560 191.561,127.930 192.248,127.600 192.666 C 127.270 193.085,126.505 193.740,125.900 194.123 C 125.295 194.505,124.800 195.065,124.800 195.366 C 124.800 196.394,123.410 196.438,90.926 196.438 L 58.416 196.438 54.745 192.766 L 51.073 189.094 51.097 184.663 C 51.123 179.948,51.127 179.939,53.453 178.556 C 54.154 178.139,54.202 177.401,54.229 166.682 C 54.259 155.045,54.388 154.000,55.800 154.000 C 57.155 154.000,57.294 152.929,57.229 143.019 L 57.165 133.232 58.782 132.211 L 60.400 131.190 60.400 119.766 C 60.400 108.299,60.526 107.200,61.840 107.200 C 63.434 107.200,63.600 106.156,63.615 96.038 L 63.630 86.200 65.215 85.104 L 66.800 84.008 66.800 78.785 L 66.800 73.563 67.932 72.913 C 68.554 72.556,69.356 71.754,69.713 71.132 C 70.071 70.509,70.778 69.810,71.286 69.579 C 71.794 69.348,72.514 68.628,72.886 67.979 C 73.489 66.928,73.774 66.800,75.505 66.800 C 77.588 66.800,78.267 66.428,79.337 64.700 L 80.018 63.600 91.413 63.600 L 102.808 63.600 103.904 62.015 L 105.000 60.430 108.691 60.415 C 112.273 60.400,112.402 60.368,113.086 59.300 C 114.267 57.454,114.620 57.250,116.845 57.123 C 118.746 57.014,119.055 56.872,119.526 55.884 C 119.819 55.271,120.673 54.371,121.424 53.884 C 122.175 53.398,122.792 52.797,122.795 52.549 C 122.804 51.707,124.068 51.041,125.474 51.136 C 127.520 51.274,128.246 50.928,129.157 49.382 C 129.893 48.135,130.147 48.000,131.754 48.000 C 134.171 48.000,134.697 47.737,135.447 46.156 C 136.256 44.453,138.771 44.183,140.053 45.661 M119.300 47.425 C 118.604 48.178,118.673 48.400,119.600 48.400 C 120.040 48.400,120.400 48.141,120.400 47.824 C 120.400 46.989,119.878 46.800,119.300 47.425 M338.100 47.417 C 337.825 47.719,337.600 48.064,337.600 48.183 C 337.600 48.582,338.749 48.406,339.022 47.965 C 339.446 47.278,338.655 46.807,338.100 47.417 M149.200 47.800 C 149.200 48.145,149.561 48.400,150.049 48.400 C 150.758 48.400,150.816 48.301,150.400 47.800 C 150.126 47.470,149.744 47.200,149.551 47.200 C 149.358 47.200,149.200 47.470,149.200 47.800 M116.100 50.598 C 115.407 51.385,115.472 51.600,116.400 51.600 C 116.933 51.600,117.200 51.333,117.200 50.800 C 117.200 49.869,116.806 49.796,116.100 50.598 M328.880 50.480 C 328.227 51.133,328.277 51.600,329.000 51.600 C 329.333 51.600,329.600 51.244,329.600 50.800 C 329.600 49.868,329.526 49.834,328.880 50.480 M110.080 53.680 C 109.427 54.333,109.477 54.800,110.200 54.800 C 110.533 54.800,110.800 54.444,110.800 54.000 C 110.800 53.068,110.726 53.034,110.080 53.680 M306.880 53.680 C 306.616 53.944,306.400 54.304,306.400 54.480 C 306.400 54.957,307.511 54.867,307.822 54.365 C 308.233 53.699,307.439 53.121,306.880 53.680 M100.430 56.964 C 100.109 57.350,100.094 57.611,100.381 57.788 C 100.939 58.133,101.600 57.693,101.600 56.976 C 101.600 56.242,101.034 56.236,100.430 56.964 M303.630 56.964 C 303.309 57.350,303.294 57.611,303.581 57.788 C 304.139 58.133,304.800 57.693,304.800 56.976 C 304.800 56.242,304.234 56.236,303.630 56.964 M75.680 59.680 C 75.027 60.333,75.077 60.800,75.800 60.800 C 76.133 60.800,76.400 60.444,76.400 60.000 C 76.400 59.068,76.326 59.034,75.680 59.680 M300.400 60.200 C 299.984 60.701,300.042 60.800,300.751 60.800 C 301.239 60.800,301.600 60.545,301.600 60.200 C 301.600 59.870,301.442 59.600,301.249 59.600 C 301.056 59.600,300.674 59.870,300.400 60.200 M383.600 60.200 C 383.600 60.545,383.961 60.800,384.449 60.800 C 385.158 60.800,385.216 60.701,384.800 60.200 C 384.526 59.870,384.144 59.600,383.951 59.600 C 383.758 59.600,383.600 59.870,383.600 60.200 M69.300 63.025 C 68.604 63.778,68.673 64.000,69.600 64.000 C 70.040 64.000,70.400 63.741,70.400 63.424 C 70.400 62.589,69.878 62.400,69.300 63.025 M297.400 63.200 C 296.697 63.976,296.701 64.000,297.538 64.000 C 298.133 64.000,298.400 63.753,298.400 63.200 C 298.400 62.760,298.338 62.400,298.262 62.400 C 298.186 62.400,297.798 62.760,297.400 63.200 M66.100 66.198 C 65.407 66.985,65.472 67.200,66.400 67.200 C 66.933 67.200,67.200 66.933,67.200 66.400 C 67.200 65.469,66.806 65.396,66.100 66.198 M294.480 66.080 C 293.827 66.733,293.877 67.200,294.600 67.200 C 294.933 67.200,295.200 66.844,295.200 66.400 C 295.200 65.468,295.126 65.434,294.480 66.080 M383.600 68.862 C 383.600 69.699,383.624 69.703,384.400 69.000 C 384.840 68.602,385.200 68.214,385.200 68.138 C 385.200 68.062,384.840 68.000,384.400 68.000 C 383.847 68.000,383.600 68.267,383.600 68.862 M62.924 69.373 C 62.403 69.966,62.633 70.400,63.467 70.400 C 63.760 70.400,64.000 70.040,64.000 69.600 C 64.000 68.678,63.606 68.595,62.924 69.373 M291.280 69.280 C 290.627 69.933,290.677 70.400,291.400 70.400 C 291.733 70.400,292.000 70.044,292.000 69.600 C 292.000 68.668,291.926 68.634,291.280 69.280 M149.200 75.000 C 149.200 75.330,149.358 75.600,149.551 75.600 C 149.744 75.600,150.126 75.330,150.400 75.000 C 150.816 74.499,150.758 74.400,150.049 74.400 C 149.561 74.400,149.200 74.655,149.200 75.000 M288.000 75.800 C 287.584 76.301,287.642 76.400,288.351 76.400 C 288.839 76.400,289.200 76.145,289.200 75.800 C 289.200 75.470,289.042 75.200,288.849 75.200 C 288.656 75.200,288.274 75.470,288.000 75.800 M60.080 81.680 C 59.427 82.333,59.477 82.800,60.200 82.800 C 60.533 82.800,60.800 82.444,60.800 82.000 C 60.800 81.068,60.726 81.034,60.080 81.680 M380.538 93.417 C 380.408 93.757,380.409 94.142,380.541 94.274 C 380.887 94.620,382.033 93.577,381.772 93.155 C 381.431 92.602,380.799 92.737,380.538 93.417 M284.900 97.425 C 284.204 98.178,284.273 98.400,285.200 98.400 C 285.640 98.400,286.000 98.141,286.000 97.824 C 286.000 96.989,285.478 96.800,284.900 97.425 M146.200 99.600 C 145.750 100.329,146.418 100.840,147.026 100.232 C 147.341 99.916,147.600 99.554,147.600 99.429 C 147.600 99.038,146.461 99.178,146.200 99.600 M56.880 103.680 C 56.616 103.944,56.400 104.304,56.400 104.480 C 56.400 104.957,57.511 104.867,57.822 104.365 C 58.233 103.699,57.439 103.121,56.880 103.680 M377.400 115.200 C 376.968 115.900,377.609 116.491,378.236 115.970 C 378.546 115.713,378.800 115.344,378.800 115.151 C 378.800 114.669,377.705 114.707,377.400 115.200 M143.000 121.600 C 142.550 122.329,143.218 122.840,143.826 122.232 C 144.141 121.916,144.400 121.554,144.400 121.429 C 144.400 121.038,143.261 121.178,143.000 121.600 M281.630 122.564 C 281.309 122.950,281.294 123.211,281.581 123.388 C 282.139 123.733,282.800 123.293,282.800 122.576 C 282.800 121.842,282.234 121.836,281.630 122.564 M53.700 128.625 C 53.004 129.378,53.073 129.600,54.000 129.600 C 54.440 129.600,54.800 129.341,54.800 129.024 C 54.800 128.189,54.278 128.000,53.700 128.625 M374.400 140.849 C 374.400 141.558,374.499 141.616,375.000 141.200 C 375.330 140.926,375.600 140.544,375.600 140.351 C 375.600 140.158,375.330 140.000,375.000 140.000 C 374.655 140.000,374.400 140.361,374.400 140.849 M140.000 146.849 C 140.000 147.558,140.099 147.616,140.600 147.200 C 140.930 146.926,141.200 146.544,141.200 146.351 C 141.200 146.158,140.930 146.000,140.600 146.000 C 140.255 146.000,140.000 146.361,140.000 146.849 M278.880 147.280 C 278.227 147.933,278.277 148.400,279.000 148.400 C 279.333 148.400,279.600 148.044,279.600 147.600 C 279.600 146.668,279.526 146.634,278.880 147.280 M50.460 150.642 C 50.162 150.978,50.020 151.353,50.142 151.476 C 50.539 151.872,51.600 151.244,51.600 150.613 C 51.600 149.841,51.157 149.852,50.460 150.642 M371.200 165.649 C 371.200 166.358,371.299 166.416,371.800 166.000 C 372.130 165.726,372.400 165.344,372.400 165.151 C 372.400 164.958,372.130 164.800,371.800 164.800 C 371.455 164.800,371.200 165.161,371.200 165.649 M275.680 169.280 C 275.027 169.933,275.077 170.400,275.800 170.400 C 276.133 170.400,276.400 170.044,276.400 169.600 C 276.400 168.668,276.326 168.634,275.680 169.280 M136.800 171.800 C 136.800 172.130,136.958 172.400,137.151 172.400 C 137.344 172.400,137.726 172.130,138.000 171.800 C 138.416 171.299,138.358 171.200,137.649 171.200 C 137.161 171.200,136.800 171.455,136.800 171.800 M47.200 175.800 C 46.784 176.301,46.842 176.400,47.551 176.400 C 48.039 176.400,48.400 176.145,48.400 175.800 C 48.400 175.470,48.242 175.200,48.049 175.200 C 47.856 175.200,47.474 175.470,47.200 175.800 M368.000 187.400 C 368.000 187.730,368.158 188.000,368.351 188.000 C 368.544 188.000,368.926 187.730,369.200 187.400 C 369.616 186.899,369.558 186.800,368.849 186.800 C 368.361 186.800,368.000 187.055,368.000 187.400 M47.028 193.155 C 46.767 193.577,47.913 194.620,48.259 194.274 C 48.592 193.941,48.110 192.800,47.636 192.800 C 47.422 192.800,47.149 192.960,47.028 193.155 M133.738 193.417 C 133.608 193.757,133.609 194.142,133.741 194.274 C 134.087 194.620,135.233 193.577,134.972 193.155 C 134.631 192.602,133.999 192.737,133.738 193.417 M275.200 193.151 C 275.200 193.344,275.470 193.726,275.800 194.000 C 276.301 194.416,276.400 194.358,276.400 193.649 C 276.400 193.161,276.145 192.800,275.800 192.800 C 275.470 192.800,275.200 192.958,275.200 193.151 M364.938 193.417 C 364.808 193.757,364.809 194.142,364.941 194.274 C 365.287 194.620,366.433 193.577,366.172 193.155 C 365.831 192.602,365.199 192.737,364.938 193.417 M50.228 196.355 C 49.967 196.777,51.113 197.820,51.459 197.474 C 51.792 197.141,51.310 196.000,50.836 196.000 C 50.622 196.000,50.349 196.160,50.228 196.355 M130.538 196.617 C 130.408 196.957,130.409 197.342,130.541 197.474 C 130.826 197.759,132.000 196.855,132.000 196.351 C 132.000 195.747,130.787 195.968,130.538 196.617 M278.286 196.248 C 278.041 196.492,278.930 197.600,279.371 197.600 C 279.497 197.600,279.600 197.240,279.600 196.800 C 279.600 196.041,278.820 195.713,278.286 196.248 M361.738 196.617 C 361.608 196.957,361.609 197.342,361.741 197.474 C 362.026 197.759,363.200 196.855,363.200 196.351 C 363.200 195.747,361.987 195.968,361.738 196.617 M53.200 199.551 C 53.200 199.744,53.454 200.113,53.764 200.370 C 54.391 200.891,55.032 200.300,54.600 199.600 C 54.295 199.107,53.200 199.069,53.200 199.551 M127.400 199.600 C 126.968 200.300,127.609 200.891,128.236 200.370 C 128.546 200.113,128.800 199.744,128.800 199.551 C 128.800 199.069,127.705 199.107,127.400 199.600 M281.200 199.429 C 281.200 199.725,282.275 200.800,282.571 200.800 C 282.697 200.800,282.800 200.440,282.800 200.000 C 282.800 199.467,282.533 199.200,282.000 199.200 C 281.560 199.200,281.200 199.303,281.200 199.429 M358.600 199.600 C 358.168 200.300,358.809 200.891,359.436 200.370 C 359.746 200.113,360.000 199.744,360.000 199.551 C 360.000 199.069,358.905 199.107,358.600 199.600 M284.400 202.629 C 284.400 203.070,285.508 203.959,285.752 203.714 C 286.287 203.180,285.959 202.400,285.200 202.400 C 284.760 202.400,284.400 202.503,284.400 202.629 M355.600 203.249 C 355.600 203.958,355.699 204.016,356.200 203.600 C 356.530 203.326,356.800 202.944,356.800 202.751 C 356.800 202.558,356.530 202.400,356.200 202.400 C 355.855 202.400,355.600 202.761,355.600 203.249 M50.430 206.964 C 50.109 207.350,50.094 207.611,50.381 207.788 C 50.939 208.133,51.600 207.693,51.600 206.976 C 51.600 206.242,51.034 206.236,50.430 206.964 M121.200 206.976 C 121.200 207.693,121.861 208.133,122.419 207.788 C 122.706 207.611,122.691 207.350,122.370 206.964 C 121.766 206.236,121.200 206.242,121.200 206.976 M281.630 206.964 C 281.309 207.350,281.294 207.611,281.581 207.788 C 282.139 208.133,282.800 207.693,282.800 206.976 C 282.800 206.242,282.234 206.236,281.630 206.964 M352.400 206.976 C 352.400 207.693,353.061 208.133,353.619 207.788 C 353.906 207.611,353.891 207.350,353.570 206.964 C 352.966 206.236,352.400 206.242,352.400 206.976 M52.000 209.798 C 52.000 211.002,51.868 211.200,51.062 211.200 C 49.919 211.200,48.800 212.354,48.800 213.531 C 48.800 214.176,48.558 214.400,47.862 214.400 C 46.719 214.400,45.600 215.554,45.600 216.731 C 45.600 217.452,45.369 217.600,44.247 217.600 C 42.659 217.600,42.414 218.146,42.405 221.700 L 42.400 224.000 41.000 224.000 L 39.600 224.000 39.600 236.376 L 39.600 248.752 38.100 248.876 L 36.600 249.000 36.494 259.876 L 36.387 270.752 34.894 270.876 L 33.400 271.000 33.294 283.300 L 33.188 295.600 32.074 295.600 C 30.031 295.600,30.000 295.772,30.000 307.080 L 30.000 317.600 28.643 317.600 C 26.877 317.600,26.800 317.859,26.800 323.800 C 26.800 329.741,26.877 330.000,28.643 330.000 C 29.800 330.000,30.000 330.138,30.000 330.938 C 30.000 332.081,31.154 333.200,32.331 333.200 C 32.976 333.200,33.200 333.442,33.200 334.138 C 33.200 335.281,34.354 336.400,35.531 336.400 C 36.252 336.400,36.400 336.631,36.400 337.757 C 36.400 339.577,36.503 339.600,44.833 339.600 L 52.000 339.600 52.000 341.000 L 52.000 342.400 55.200 342.400 L 58.400 342.400 58.400 344.000 L 58.400 345.600 61.400 345.600 C 64.356 345.600,64.400 345.615,64.400 346.629 C 64.400 347.941,65.259 348.800,66.571 348.800 L 67.600 348.800 67.600 355.000 L 67.600 361.200 69.200 361.200 L 70.800 361.200 70.800 367.365 L 70.800 373.530 72.390 373.798 L 73.980 374.067 74.090 380.133 L 74.200 386.200 99.155 386.303 C 125.972 386.414,125.200 386.473,125.200 384.302 C 125.200 383.314,125.300 383.185,125.764 383.570 C 126.150 383.891,126.411 383.906,126.588 383.619 C 126.758 383.344,130.514 383.200,137.544 383.200 C 148.947 383.200,150.212 383.383,150.655 385.100 C 150.881 385.977,151.026 386.000,156.343 386.014 C 159.345 386.022,170.827 386.130,181.860 386.254 C 203.721 386.500,203.600 386.511,203.600 384.213 C 203.600 383.874,203.837 383.716,204.160 383.840 C 204.467 383.958,204.838 383.862,204.983 383.627 C 205.384 382.979,226.960 383.043,228.005 383.696 C 228.638 384.091,228.962 384.091,229.595 383.696 C 230.640 383.044,231.337 383.065,231.078 383.742 C 230.963 384.040,231.300 384.748,231.827 385.315 L 232.783 386.347 242.692 386.274 L 252.600 386.200 253.214 384.971 C 253.552 384.296,254.031 383.810,254.278 383.893 C 254.525 383.975,254.844 383.853,254.987 383.621 C 255.163 383.337,260.866 383.200,272.544 383.200 C 290.550 383.200,290.800 383.177,290.800 381.520 C 290.800 381.067,291.096 380.800,291.600 380.800 C 292.040 380.800,292.400 380.620,292.400 380.400 C 292.400 380.161,293.971 379.998,296.300 379.994 C 300.653 379.987,300.834 379.923,301.562 378.122 C 301.993 377.056,302.321 376.823,303.540 376.722 L 305.000 376.600 305.109 368.900 L 305.217 361.200 306.562 361.200 C 308.122 361.200,308.386 360.638,308.395 357.300 C 308.399 355.498,308.509 355.200,309.167 355.200 C 310.994 355.200,311.200 354.852,311.200 351.757 C 311.200 348.848,311.217 348.800,312.229 348.800 C 313.541 348.800,314.400 347.941,314.400 346.629 C 314.400 345.790,314.590 345.600,315.429 345.600 C 316.741 345.600,317.600 344.741,317.600 343.429 C 317.600 342.590,317.790 342.400,318.629 342.400 C 319.870 342.400,320.800 341.556,320.800 340.429 C 320.800 339.646,321.021 339.600,324.767 339.600 C 329.676 339.600,330.000 339.486,330.000 337.757 L 330.000 336.400 334.386 336.400 C 339.095 336.400,339.600 336.170,339.600 334.026 C 339.600 333.457,339.858 333.200,340.429 333.200 C 341.556 333.200,342.400 332.270,342.400 331.029 C 342.400 330.190,342.590 330.000,343.429 330.000 C 344.741 330.000,345.600 329.141,345.600 327.829 C 345.600 326.895,345.748 326.800,347.200 326.800 L 348.800 326.800 348.800 317.635 L 348.800 308.470 350.400 308.200 L 352.000 307.930 352.000 295.565 L 352.000 283.200 353.357 283.200 C 355.232 283.200,355.200 283.428,355.200 270.185 L 355.200 258.436 356.563 258.181 C 358.389 257.838,358.388 257.844,358.395 246.325 L 358.400 236.451 359.700 236.325 L 361.000 236.200 361.107 226.900 L 361.215 217.600 359.851 217.600 C 358.713 217.600,358.443 217.426,358.224 216.552 C 357.884 215.198,357.070 214.400,356.029 214.400 C 355.417 214.400,355.200 214.145,355.200 213.423 C 355.200 212.381,353.891 211.200,352.736 211.200 C 352.255 211.200,352.013 210.812,351.925 209.900 L 351.800 208.600 317.500 208.498 L 283.200 208.396 283.200 209.798 C 283.200 211.002,283.068 211.200,282.262 211.200 C 281.119 211.200,280.000 212.354,280.000 213.531 C 280.000 214.151,279.756 214.400,279.147 214.400 C 278.143 214.400,276.800 215.808,276.800 216.861 C 276.800 217.342,276.510 217.600,275.971 217.600 C 274.844 217.600,274.000 218.530,274.000 219.771 C 274.000 220.705,273.852 220.800,272.400 220.800 L 270.800 220.800 270.800 231.595 L 270.800 242.391 269.200 242.646 L 267.600 242.902 267.600 255.227 L 267.600 267.552 266.100 267.676 L 264.600 267.800 264.494 280.062 L 264.389 292.323 262.894 292.676 L 261.400 293.029 261.291 300.715 L 261.183 308.400 208.191 308.400 L 155.200 308.400 155.200 309.800 L 155.200 311.200 137.200 311.200 C 121.083 311.200,117.273 310.997,120.000 310.284 C 120.774 310.082,120.800 309.738,120.800 299.837 L 120.800 289.600 121.771 289.600 C 123.962 289.600,124.000 289.377,124.000 276.371 L 124.000 264.400 125.400 264.400 L 126.800 264.400 126.800 252.000 L 126.800 239.600 127.767 239.600 C 130.088 239.600,130.000 240.044,130.000 228.357 L 130.000 217.600 128.400 217.600 C 126.948 217.600,126.800 217.505,126.800 216.571 C 126.800 215.347,125.959 214.400,124.872 214.400 C 124.353 214.400,123.995 214.035,123.817 213.325 C 123.516 212.125,122.547 211.232,121.525 211.213 C 121.060 211.204,120.812 210.797,120.725 209.900 L 120.600 208.600 86.300 208.498 L 52.000 208.396 52.000 209.798 M124.400 209.951 C 124.400 210.439,124.655 210.800,125.000 210.800 C 125.330 210.800,125.600 210.642,125.600 210.449 C 125.600 210.256,125.330 209.874,125.000 209.600 C 124.499 209.184,124.400 209.242,124.400 209.951 M47.200 210.200 C 46.784 210.701,46.842 210.800,47.551 210.800 C 48.039 210.800,48.400 210.545,48.400 210.200 C 48.400 209.870,48.242 209.600,48.049 209.600 C 47.856 209.600,47.474 209.870,47.200 210.200 M278.400 210.200 C 277.984 210.701,278.042 210.800,278.751 210.800 C 279.239 210.800,279.600 210.545,279.600 210.200 C 279.600 209.870,279.442 209.600,279.249 209.600 C 279.056 209.600,278.674 209.870,278.400 210.200 M355.600 210.200 C 355.600 210.545,355.961 210.800,356.449 210.800 C 357.158 210.800,357.216 210.701,356.800 210.200 C 356.526 209.870,356.144 209.600,355.951 209.600 C 355.758 209.600,355.600 209.870,355.600 210.200 M122.608 215.786 L 128.000 221.172 128.000 228.781 L 128.000 236.390 126.400 237.400 L 124.800 238.410 124.800 249.834 C 124.800 261.301,124.674 262.400,123.360 262.400 C 121.732 262.400,121.600 263.337,121.600 274.930 C 121.600 286.672,121.465 287.600,119.752 287.600 C 118.564 287.600,118.365 289.252,118.422 298.596 C 118.481 308.200,118.333 309.200,116.851 309.200 C 115.535 309.200,114.908 311.553,115.900 312.771 C 116.599 313.631,116.615 313.632,136.176 313.609 C 156.608 313.586,157.200 313.538,157.200 311.909 C 157.200 310.371,156.186 310.400,210.343 310.400 C 257.082 310.400,262.406 310.336,262.971 309.771 C 263.493 309.250,263.600 307.995,263.600 302.381 L 263.600 295.618 264.700 294.937 C 266.834 293.616,266.800 293.831,266.800 281.724 C 266.800 275.334,266.956 270.400,267.158 270.400 C 267.354 270.400,268.088 269.865,268.789 269.210 L 270.063 268.021 269.983 257.110 C 269.903 246.292,270.024 244.800,270.981 244.800 C 272.741 244.800,272.922 243.686,272.836 233.403 C 272.779 226.655,272.887 223.600,273.182 223.600 C 273.707 223.600,286.000 211.301,286.000 210.776 C 286.000 210.544,298.138 210.400,317.600 210.400 C 337.799 210.400,349.200 210.540,349.200 210.789 C 349.200 211.003,351.450 213.413,354.200 216.145 L 359.200 221.113 359.200 227.025 C 359.200 233.115,358.878 234.400,357.352 234.400 C 356.203 234.400,356.000 236.073,356.000 245.564 L 356.000 255.182 354.900 255.863 C 352.768 257.183,352.800 256.982,352.800 268.905 C 352.800 280.293,352.685 281.200,351.238 281.200 C 349.752 281.200,349.543 282.862,349.632 294.004 C 349.703 302.869,349.616 304.965,349.160 305.410 C 348.852 305.709,348.086 306.425,347.458 307.001 L 346.315 308.048 346.448 315.724 C 346.583 323.539,346.478 324.226,345.027 325.027 C 344.601 325.261,344.061 325.794,343.827 326.210 C 343.206 327.311,342.517 328.000,342.038 328.000 C 341.807 328.000,341.304 328.495,340.919 329.100 C 340.534 329.705,339.945 330.366,339.610 330.569 C 339.274 330.773,338.330 331.667,337.511 332.558 L 336.021 334.176 333.210 334.061 C 329.646 333.916,329.044 334.121,328.043 335.818 L 327.227 337.200 323.787 337.200 C 320.429 337.200,318.800 337.606,318.800 338.443 C 318.800 338.797,311.691 345.986,309.828 347.516 C 309.411 347.858,309.200 348.698,309.200 350.011 C 309.200 351.885,309.115 352.044,307.600 353.000 C 306.051 353.978,306.000 354.080,306.000 356.200 C 306.000 358.320,305.949 358.422,304.400 359.400 L 302.800 360.410 302.800 367.200 L 302.800 373.990 301.161 375.025 C 299.940 375.796,299.573 376.255,299.724 376.829 C 300.022 377.971,299.534 378.095,294.864 378.058 C 288.219 378.006,285.778 378.400,285.895 379.506 C 285.966 380.168,285.781 380.400,285.183 380.400 C 284.738 380.400,284.272 380.669,284.146 380.998 C 284.019 381.326,283.747 381.491,283.541 381.364 C 283.335 381.236,276.289 381.115,267.883 381.095 C 251.678 381.057,250.485 381.179,251.008 382.824 C 251.146 383.261,251.067 383.600,250.827 383.600 C 250.592 383.600,250.400 383.825,250.399 384.100 C 250.399 384.481,248.742 384.600,243.450 384.600 C 238.055 384.600,236.544 384.488,236.693 384.100 C 236.813 383.788,236.531 383.598,235.943 383.594 C 234.966 383.588,233.360 382.818,234.300 382.806 C 235.197 382.795,234.826 381.990,233.731 381.574 C 232.231 381.004,202.952 380.982,201.500 381.550 C 200.335 382.005,200.069 382.613,200.900 382.915 C 201.175 383.016,200.714 383.233,199.876 383.398 C 199.000 383.570,198.426 383.890,198.525 384.149 C 198.651 384.477,195.760 384.600,187.945 384.600 C 179.507 384.600,177.233 384.492,177.383 384.100 C 177.513 383.760,177.138 383.600,176.211 383.600 C 175.461 383.600,174.736 383.420,174.600 383.200 C 174.464 382.980,174.633 382.800,174.976 382.800 C 175.944 382.800,175.712 382.023,174.621 381.608 C 174.066 381.397,163.020 381.194,149.121 381.139 C 123.617 381.038,122.373 381.110,122.968 382.660 C 123.624 384.371,123.239 384.400,99.661 384.400 C 87.344 384.400,76.981 384.291,76.633 384.157 C 76.098 383.952,76.000 383.056,76.000 378.362 L 76.000 372.810 74.390 371.793 L 72.779 370.777 72.826 365.492 C 72.867 360.911,72.783 360.154,72.194 359.804 C 69.648 358.292,69.688 358.405,69.907 353.426 C 70.120 348.612,69.652 346.800,68.196 346.800 C 67.874 346.800,67.156 346.080,66.600 345.200 C 65.639 343.677,65.492 343.600,63.566 343.600 C 61.712 343.600,60.400 343.003,60.400 342.160 C 60.400 341.177,58.947 340.400,57.109 340.400 C 55.231 340.400,54.000 339.789,54.000 338.857 C 54.000 337.449,52.817 337.200,46.118 337.200 C 39.308 337.200,38.000 336.866,38.000 335.130 C 38.000 334.939,37.595 334.598,37.100 334.372 C 36.605 334.146,35.793 333.340,35.296 332.581 C 34.799 331.821,34.164 331.200,33.885 331.200 C 33.605 331.200,33.112 330.810,32.788 330.334 C 32.041 329.235,31.165 328.359,30.066 327.612 C 29.296 327.089,29.202 326.666,29.215 323.812 L 29.230 320.600 30.815 319.504 L 32.400 318.408 32.400 308.735 C 32.400 298.611,32.570 297.600,34.272 297.600 C 35.418 297.600,35.641 295.404,35.574 284.757 C 35.503 273.497,35.519 273.363,37.046 272.782 C 38.691 272.157,38.880 270.849,38.735 261.120 C 38.593 251.562,38.590 251.577,40.466 250.642 L 41.400 250.177 41.506 238.654 C 41.612 227.142,41.751 226.000,43.040 226.000 C 44.062 226.000,44.800 224.548,44.800 222.538 C 44.800 221.362,44.970 220.400,45.179 220.400 C 45.673 220.400,54.800 211.273,54.800 210.779 C 54.800 210.544,66.638 210.400,86.008 210.400 L 117.216 210.400 122.608 215.786 M44.480 212.880 C 43.827 213.533,43.877 214.000,44.600 214.000 C 44.933 214.000,45.200 213.644,45.200 213.200 C 45.200 212.268,45.126 212.234,44.480 212.880 M127.402 212.797 C 127.065 213.341,127.515 214.000,128.224 214.000 C 128.953 214.000,128.954 213.697,128.226 212.968 C 127.866 212.609,127.558 212.545,127.402 212.797 M275.680 212.880 C 275.027 213.533,275.077 214.000,275.800 214.000 C 276.133 214.000,276.400 213.644,276.400 213.200 C 276.400 212.268,276.326 212.234,275.680 212.880 M358.612 212.781 C 358.267 213.339,358.707 214.000,359.424 214.000 C 360.158 214.000,360.164 213.434,359.436 212.830 C 359.050 212.509,358.789 212.494,358.612 212.781 M41.280 216.080 C 40.627 216.733,40.677 217.200,41.400 217.200 C 41.733 217.200,42.000 216.844,42.000 216.400 C 42.000 215.468,41.926 215.434,41.280 216.080 M130.602 215.997 C 130.265 216.541,130.715 217.200,131.424 217.200 C 132.153 217.200,132.154 216.897,131.426 216.168 C 131.066 215.809,130.758 215.745,130.602 215.997 M272.480 216.080 C 272.216 216.344,272.000 216.704,272.000 216.880 C 272.000 217.357,273.111 217.267,273.422 216.765 C 273.833 216.099,273.039 215.521,272.480 216.080 M361.812 215.981 C 361.467 216.539,361.907 217.200,362.624 217.200 C 363.358 217.200,363.364 216.634,362.636 216.030 C 362.250 215.709,361.989 215.694,361.812 215.981 M269.192 219.410 C 268.914 219.745,268.794 220.127,268.926 220.259 C 269.335 220.669,270.400 220.057,270.400 219.413 C 270.400 218.629,269.841 218.628,269.192 219.410 M38.030 222.564 C 37.709 222.950,37.694 223.211,37.981 223.388 C 38.539 223.733,39.200 223.293,39.200 222.576 C 39.200 221.842,38.634 221.836,38.030 222.564 M361.600 237.333 C 361.600 238.196,362.054 238.403,362.648 237.810 C 363.404 237.054,363.341 236.800,362.400 236.800 C 361.960 236.800,361.600 237.040,361.600 237.333 M130.400 240.600 C 130.400 240.930,130.558 241.200,130.751 241.200 C 130.944 241.200,131.326 240.930,131.600 240.600 C 132.016 240.099,131.958 240.000,131.249 240.000 C 130.761 240.000,130.400 240.255,130.400 240.600 M266.000 241.400 C 265.584 241.901,265.642 242.000,266.351 242.000 C 266.839 242.000,267.200 241.745,267.200 241.400 C 267.200 241.070,267.042 240.800,266.849 240.800 C 266.656 240.800,266.274 241.070,266.000 241.400 M34.900 247.425 C 34.204 248.178,34.273 248.400,35.200 248.400 C 35.640 248.400,36.000 248.141,36.000 247.824 C 36.000 246.989,35.478 246.800,34.900 247.425 M358.600 258.800 C 358.169 259.497,358.808 260.092,359.431 259.574 C 359.739 259.318,359.893 258.950,359.772 258.755 C 359.480 258.283,358.906 258.305,358.600 258.800 M127.400 265.200 C 126.968 265.900,127.609 266.491,128.236 265.970 C 128.546 265.713,128.800 265.344,128.800 265.151 C 128.800 264.669,127.705 264.707,127.400 265.200 M263.280 266.080 C 262.627 266.733,262.677 267.200,263.400 267.200 C 263.733 267.200,264.000 266.844,264.000 266.400 C 264.000 265.468,263.926 265.434,263.280 266.080 M31.704 269.394 C 31.391 269.749,31.354 270.048,31.604 270.202 C 32.142 270.535,32.800 270.081,32.800 269.376 C 32.800 268.654,32.349 268.661,31.704 269.394 M355.600 284.449 C 355.600 285.158,355.699 285.216,356.200 284.800 C 356.530 284.526,356.800 284.144,356.800 283.951 C 356.800 283.758,356.530 283.600,356.200 283.600 C 355.855 283.600,355.600 283.961,355.600 284.449 M124.400 290.849 C 124.400 291.558,124.499 291.616,125.000 291.200 C 125.330 290.926,125.600 290.544,125.600 290.351 C 125.600 290.158,125.330 290.000,125.000 290.000 C 124.655 290.000,124.400 290.361,124.400 290.849 M259.600 291.400 C 259.184 291.901,259.242 292.000,259.951 292.000 C 260.439 292.000,260.800 291.745,260.800 291.400 C 260.800 291.070,260.642 290.800,260.449 290.800 C 260.256 290.800,259.874 291.070,259.600 291.400 M28.400 294.600 C 27.984 295.101,28.042 295.200,28.751 295.200 C 29.239 295.200,29.600 294.945,29.600 294.600 C 29.600 294.270,29.442 294.000,29.249 294.000 C 29.056 294.000,28.674 294.270,28.400 294.600 M153.630 306.964 C 153.309 307.350,153.294 307.611,153.581 307.788 C 154.139 308.133,154.800 307.693,154.800 306.976 C 154.800 306.242,154.234 306.236,153.630 306.964 M352.538 309.017 C 352.408 309.357,352.409 309.742,352.541 309.874 C 352.887 310.220,354.033 309.177,353.772 308.755 C 353.431 308.202,352.799 308.337,352.538 309.017 M25.680 316.080 C 25.027 316.733,25.077 317.200,25.800 317.200 C 26.133 317.200,26.400 316.844,26.400 316.400 C 26.400 315.468,26.326 315.434,25.680 316.080 M349.338 327.817 C 349.208 328.157,349.209 328.542,349.341 328.674 C 349.687 329.020,350.833 327.977,350.572 327.555 C 350.231 327.002,349.599 327.137,349.338 327.817 M25.200 330.751 C 25.200 330.944,25.470 331.326,25.800 331.600 C 26.301 332.016,26.400 331.958,26.400 331.249 C 26.400 330.761,26.145 330.400,25.800 330.400 C 25.470 330.400,25.200 330.558,25.200 330.751 M346.138 331.017 C 346.008 331.357,346.009 331.742,346.141 331.874 C 346.426 332.159,347.600 331.255,347.600 330.751 C 347.600 330.147,346.387 330.368,346.138 331.017 M28.400 333.951 C 28.400 334.144,28.670 334.526,29.000 334.800 C 29.501 335.216,29.600 335.158,29.600 334.449 C 29.600 333.961,29.345 333.600,29.000 333.600 C 28.670 333.600,28.400 333.758,28.400 333.951 M343.000 334.000 C 342.568 334.700,343.209 335.291,343.836 334.770 C 344.146 334.513,344.400 334.144,344.400 333.951 C 344.400 333.469,343.305 333.507,343.000 334.000 M31.600 337.400 C 31.874 337.730,32.256 338.000,32.449 338.000 C 32.642 338.000,32.800 337.730,32.800 337.400 C 32.800 337.055,32.439 336.800,31.951 336.800 C 31.242 336.800,31.184 336.899,31.600 337.400 M340.000 337.649 C 340.000 338.358,340.099 338.416,340.600 338.000 C 340.930 337.726,341.200 337.344,341.200 337.151 C 341.200 336.958,340.930 336.800,340.600 336.800 C 340.255 336.800,340.000 337.161,340.000 337.649 M34.800 340.600 C 35.074 340.930,35.456 341.200,35.649 341.200 C 35.842 341.200,36.000 340.930,36.000 340.600 C 36.000 340.255,35.639 340.000,35.151 340.000 C 34.442 340.000,34.384 340.099,34.800 340.600 M330.400 340.600 C 330.400 340.930,330.558 341.200,330.751 341.200 C 330.944 341.200,331.326 340.930,331.600 340.600 C 332.016 340.099,331.958 340.000,331.249 340.000 C 330.761 340.000,330.400 340.255,330.400 340.600 M50.228 343.155 C 49.967 343.577,51.113 344.620,51.459 344.274 C 51.792 343.941,51.310 342.800,50.836 342.800 C 50.622 342.800,50.349 342.960,50.228 343.155 M321.338 343.417 C 320.993 344.316,321.467 344.591,322.162 343.895 C 322.492 343.565,322.650 343.184,322.514 343.048 C 322.086 342.619,321.584 342.777,321.338 343.417 M56.400 346.351 C 56.400 346.544,56.654 346.913,56.964 347.170 C 57.591 347.691,58.232 347.100,57.800 346.400 C 57.495 345.907,56.400 345.869,56.400 346.351 M318.000 346.800 C 318.000 347.741,318.254 347.804,319.010 347.048 C 319.603 346.454,319.396 346.000,318.533 346.000 C 318.240 346.000,318.000 346.360,318.000 346.800 M62.800 349.551 C 62.800 349.744,63.070 350.126,63.400 350.400 C 63.901 350.816,64.000 350.758,64.000 350.049 C 64.000 349.561,63.745 349.200,63.400 349.200 C 63.070 349.200,62.800 349.358,62.800 349.551 M314.800 350.000 C 314.800 350.947,315.053 351.004,315.829 350.229 C 316.604 349.453,316.547 349.200,315.600 349.200 C 315.067 349.200,314.800 349.467,314.800 350.000 M311.600 356.200 C 311.600 356.530,311.758 356.800,311.951 356.800 C 312.144 356.800,312.526 356.530,312.800 356.200 C 313.216 355.699,313.158 355.600,312.449 355.600 C 311.961 355.600,311.600 355.855,311.600 356.200 M65.828 361.955 C 65.567 362.377,66.713 363.420,67.059 363.074 C 67.392 362.741,66.910 361.600,66.436 361.600 C 66.222 361.600,65.949 361.760,65.828 361.955 M308.600 362.000 C 308.168 362.700,308.809 363.291,309.436 362.770 C 309.746 362.513,310.000 362.144,310.000 361.951 C 310.000 361.469,308.905 361.507,308.600 362.000 M69.200 375.000 C 69.474 375.330,69.856 375.600,70.049 375.600 C 70.242 375.600,70.400 375.330,70.400 375.000 C 70.400 374.655,70.039 374.400,69.551 374.400 C 68.842 374.400,68.784 374.499,69.200 375.000 M291.200 375.600 C 290.832 376.288,290.900 376.407,291.686 376.447 C 293.800 376.557,294.325 376.274,293.608 375.410 C 292.900 374.556,291.708 374.650,291.200 375.600 M296.780 376.624 C 296.385 377.100,296.483 377.200,297.351 377.200 C 298.475 377.200,298.769 376.627,297.829 376.267 C 297.515 376.146,297.043 376.307,296.780 376.624 M305.600 378.000 C 305.600 378.954,306.214 379.061,306.557 378.167 C 306.900 377.273,306.873 377.200,306.200 377.200 C 305.867 377.200,305.600 377.556,305.600 378.000 M126.388 378.614 C 125.560 379.612,125.899 379.644,137.030 379.613 C 148.498 379.582,148.133 379.612,147.790 378.719 C 147.444 377.816,127.132 377.717,126.388 378.614 M206.080 378.480 C 205.327 379.233,205.501 379.494,206.900 379.707 C 208.928 380.015,210.000 379.292,208.595 378.564 C 207.267 377.874,206.704 377.856,206.080 378.480 M228.800 378.553 C 228.800 378.883,228.980 379.264,229.200 379.400 C 229.420 379.536,229.600 379.377,229.600 379.047 C 229.600 378.717,229.420 378.336,229.200 378.200 C 228.980 378.064,228.800 378.223,228.800 378.553 M254.378 378.627 C 253.558 379.615,253.853 379.637,267.625 379.611 C 281.600 379.585,281.616 379.583,280.804 378.604 C 280.052 377.699,255.131 377.720,254.378 378.627 " stroke="none" fill="#e45c44" fill-rule="evenodd"></path></g></svg>